<?xml version="1.0" ?><!DOCTYPE svg  PUBLIC '-//W3C//DTD SVG 1.1//EN'  'http://www.w3.org/Graphics/SVG/1.1/DTD/svg11.dtd'><svg enable-background="new 0 0 512 512" height="512px" id="Layer_1" version="1.1" viewBox="0 0 512 512" width="512px" xml:space="preserve" xmlns="http://www.w3.org/2000/svg" xmlns:xlink="http://www.w3.org/1999/xlink"><g><path d="M437.008,74.992C390.661,28.641,326.588,0,255.993,0c-70.732,0-134.805,28.641-181.01,74.992   C28.631,121.338,0,185.269,0,256.005c0,70.727,28.631,134.657,74.983,181.013C121.188,483.364,185.261,512,255.993,512   c70.595,0,134.668-28.636,181.015-74.982C483.359,390.662,512,326.731,512,256.005C512,185.269,483.359,121.338,437.008,74.992z"/><path clip-rule="evenodd" d="M368.972,182.578c0,0,4.821-40.404-32.175-42.383   c-36.573-1.984-42.954-2.408-59.11-3.549c-3.12-28.626-76.123-26.223-76.123-6.801c0,19.982,0.424,36.855-3.539,44.226   c-3.55,6.811-20.982,3.266-40.683,3.544c-11.627,0-15.736,9.36-16.867,13.606c-3.262,11.769,13.742,93.833,18.563,101.634   c7.664,12.762,78.814,26.08,88.028,20.416c9.355-5.67,10.067-28.924,12.046-28.924c1.702,0.288,4.12,13.192,10.063,15.313   c16.873,5.957,38.273,8.507,47.493,13.611c10.203,5.664,14.454,40.248,4.957,47.482c-6.229,4.816-17.286,1.701-30.332,1.701   c-13.323,0-11.339-19.841-5.245-20.271c5.669-0.429,13.47,0,13.47,0s0-17.149,0-20.411c-8.225,0.288-29.202-3.974-42.242,15.313   c-5.812,8.502-4.963,38.269,8.638,49.319c15.878,12.904,64.068,11.345,69.313,8.225   C386.399,365.722,368.972,182.578,368.972,182.578L368.972,182.578z M191.224,170.81c3.821-2.827,2.827-43.09,0-44.221   c-2.843-1.136-43.954,43.378-43.954,44.221C147.27,171.521,187.538,173.364,191.224,170.81L191.224,170.81z M333.53,250.477   c-5.528-3.125-20.554-3.686-28.909-1.707c-3.267-5.528,2.126-18.276,17.004-16.862C336.09,232.893,334.105,248.771,333.53,250.477   L333.53,250.477z" fill="#FFFFFF" fill-rule="evenodd"/></g></svg>