<?xml version="1.0" ?><!DOCTYPE svg  PUBLIC '-//W3C//DTD SVG 1.1//EN'  'http://www.w3.org/Graphics/SVG/1.1/DTD/svg11.dtd'><svg enable-background="new 0 0 512 512" height="512px" id="Layer_1" version="1.1" viewBox="0 0 512 512" width="512px" xml:space="preserve" xmlns="http://www.w3.org/2000/svg" xmlns:xlink="http://www.w3.org/1999/xlink"><g><path d="M437.013,74.963C390.803,28.765,326.729,0,255.998,0C185.407,0,121.34,28.765,74.988,74.963   C28.634,121.305,0,185.355,0,256.073c0,70.566,28.634,134.625,74.988,180.959C121.34,483.235,185.407,512,255.998,512   c70.731,0,134.805-28.765,181.015-74.968C483.369,390.698,512,326.64,512,256.073C512,185.355,483.369,121.305,437.013,74.963z"/><path clip-rule="evenodd" d="M301.077,218.233l-119.633-66.463   c-4.821-3.114-9.497-3.824-13.606-2.695l103.049,97.782L301.077,218.233z" fill="#F5F5F5" fill-rule="evenodd"/><path clip-rule="evenodd" d="M345.309,242.753l-31.897-17.719l-32.887,31.039l33.311,31.454   l31.04-17.004C360.188,262.02,354.518,247.992,345.309,242.753L345.309,242.753z" fill="#F5F5F5" fill-rule="evenodd"/><path clip-rule="evenodd" d="M167.55,362.776c4.251,1.423,9.073,0.429,13.895-2.408   l120.058-65.754l-30.903-29.332L167.55,362.776z" fill="#F5F5F5" fill-rule="evenodd"/><path clip-rule="evenodd" d="M158.619,158.715c-0.707,1.696-0.849,3.682-0.849,5.951v182.665   c0,2.128,0.142,4.108,0.849,5.81l102.483-97.067L158.619,158.715z" fill="#F5F5F5" fill-rule="evenodd"/></g></svg>