<?xml version="1.0" ?><!DOCTYPE svg  PUBLIC '-//W3C//DTD SVG 1.1//EN'  'http://www.w3.org/Graphics/SVG/1.1/DTD/svg11.dtd'><svg enable-background="new 0 0 512 512" height="512px" id="Layer_1" version="1.1" viewBox="0 0 512 512" width="512px" xml:space="preserve" xmlns="http://www.w3.org/2000/svg" xmlns:xlink="http://www.w3.org/1999/xlink"><g><path d="M437.012,74.968C390.66,28.779,326.729,0,255.997,0S121.334,28.779,74.985,74.968C28.634,121.312,0,185.356,0,256.078   c0,70.566,28.634,134.616,74.985,180.966C121.334,483.377,185.266,512,255.997,512s134.663-28.623,181.015-74.956   C483.363,390.694,512,326.645,512,256.078C512,185.356,483.363,121.312,437.012,74.968z"/><path clip-rule="evenodd" d="M219.707,206.05h-20.835c-2.838,0-5.241,2.413-5.241,5.244v95.651   c0,2.982,2.403,5.239,5.241,5.239h20.835c2.838,0,5.246-2.257,5.246-5.239v-95.651C224.953,208.463,222.545,206.05,219.707,206.05   L219.707,206.05z M381.022,282.012c0,2.826-2.408,5.244-5.246,5.244h-8.36c-2.837,0-5.246-2.418-5.246-5.244v-45.774   c0-2.836,2.409-5.107,5.246-5.107h8.36c2.838,0,5.246,2.271,5.246,5.107V282.012z M406.957,206.05h-70.873   c-2.837,0-4.958,2.413-4.958,5.244v95.798c0,2.836,2.121,5.093,4.958,5.093h39.692c2.838,0,5.246,2.417,5.246,5.244v2.13   c0,2.836-2.408,5.103-5.246,5.103h-39.692c-2.837,0-4.958,2.412-4.958,5.249v14.592c0,2.831,2.121,5.098,4.958,5.098h70.873   c2.838,0,5.109-2.267,5.109-5.098V211.294C412.066,208.463,409.795,206.05,406.957,206.05L406.957,206.05z M149.829,282.012   c0,2.826-2.131,5.244-4.963,5.244h-8.365c-2.828,0-5.241-2.418-5.241-5.244v-45.774c0-2.836,2.413-5.107,5.241-5.107h8.365   c2.832,0,4.963,2.271,4.963,5.107V282.012z M175.91,162.543h-20.836c-2.837,0-5.245,2.124-5.245,5.249v33.15   c0,2.847-2.131,5.107-4.963,5.107H105.32c-2.979,0-5.388,2.413-5.388,5.244v95.651c0,2.982,2.408,5.239,5.388,5.239h70.59   c2.832,0,5.246-2.257,5.246-5.239V167.792C181.156,164.667,178.742,162.543,175.91,162.543L175.91,162.543z M287.324,282.012   c0,2.826-2.408,5.244-5.24,5.244h-8.366c-2.832,0-5.245-2.418-5.245-5.244v-45.774c0-2.836,2.413-5.107,5.245-5.107h8.366   c2.832,0,5.24,2.271,5.24,5.107V282.012z M313.405,206.05h-71.015c-2.832,0-4.963,2.413-4.963,5.244v95.798   c0,2.836,2.131,5.093,4.963,5.093h39.693c2.832,0,5.24,2.417,5.24,5.244v2.13c0,2.836-2.408,5.103-5.24,5.103h-39.693   c-2.832,0-4.963,2.412-4.963,5.249v14.592c0,2.831,2.131,5.098,4.963,5.098h71.015c2.838,0,5.251-2.267,5.251-5.098V211.294   C318.656,208.463,316.243,206.05,313.405,206.05L313.405,206.05z M219.707,162.543h-20.835c-2.838,0-5.241,2.124-5.241,5.249   v20.688c0,2.831,2.403,5.098,5.241,5.098h20.835c2.838,0,5.246-2.267,5.246-5.098v-20.688   C224.953,164.667,222.545,162.543,219.707,162.543L219.707,162.543z" fill="#FFFFFF" fill-rule="evenodd"/></g></svg>