<?xml version="1.0" ?><!DOCTYPE svg  PUBLIC '-//W3C//DTD SVG 1.1//EN'  'http://www.w3.org/Graphics/SVG/1.1/DTD/svg11.dtd'><svg enable-background="new 0 0 512 512" height="512px" id="Layer_1" version="1.1" viewBox="0 0 512 512" width="512px" xml:space="preserve" xmlns="http://www.w3.org/2000/svg" xmlns:xlink="http://www.w3.org/1999/xlink"><g><path d="M437.008,74.982C390.661,28.641,326.588,0,255.993,0c-70.732,0-134.805,28.641-181.01,74.982   C28.631,121.339,0,185.407,0,255.997c0,70.737,28.631,134.663,74.983,181.02C121.188,483.363,185.261,512,255.993,512   c70.595,0,134.668-28.637,181.015-74.983C483.359,390.66,512,326.734,512,255.997C512,185.407,483.359,121.339,437.008,74.982z"/><path clip-rule="evenodd" d="M293.565,180.731c0-19.134,38.546-28.636,38.546,2.55   c0,17.721-2.69,26.793-6.513,41.818h40.248c2.983-18.146,2.983-28.495,2.983-49.608c0-59.963-115.099-69.601-115.099,6.089   c0,53.157,28.206,81.223,54.995,95.692c-22.113,42.656-54.995,67.323-54.995,67.323c-84.202-66.909-75.271-181.585-75.271-181.585   h-35.431c0.838,153.379,84.479,206.53,94.824,214.473c9.643,7.79,11.339,6.941,24.657,6.941   c12.057-0.424,39.41-28.207,73.15-79.662c2.979-4.816,6.234-9.785,8.931-14.596c14.172,2.968,24.238,2.968,24.238,2.968V260.96   C297.523,254.159,293.565,195.327,293.565,180.731L293.565,180.731z" fill="#FFFFFF" fill-rule="evenodd"/></g></svg>