<?xml version="1.0" ?><!DOCTYPE svg  PUBLIC '-//W3C//DTD SVG 1.1//EN'  'http://www.w3.org/Graphics/SVG/1.1/DTD/svg11.dtd'><svg enable-background="new 0 0 512 512" height="512px" id="Layer_1" version="1.1" viewBox="0 0 512 512" width="512px" xml:space="preserve" xmlns="http://www.w3.org/2000/svg" xmlns:xlink="http://www.w3.org/1999/xlink"><g><path d="M437.033,74.963C390.689,28.765,326.64,0,256.068,0C185.356,0,121.307,28.765,74.968,74.963   C28.765,121.305,0,185.355,0,256.073c0,70.566,28.765,134.624,74.968,180.959C121.307,483.233,185.356,512,256.068,512   c70.571,0,134.621-28.767,180.965-74.968C483.231,390.697,512,326.64,512,256.073C512,185.355,483.231,121.305,437.033,74.963z"/><path clip-rule="evenodd" d="M335.573,209.732c-3.402-14.6-8.51-29.053-14.88-42.658   c-3.406-7.366-10.922-12.045-18.987-12.045c-3.271,0-6.38,0.707-9.217,1.986c-10.487,5.098-14.879,17.569-9.781,28.058   c10.771,22.531,16.01,46.34,16.01,71.278c0,24.803-5.239,48.611-15.863,70.716c-0.146,0.141-2.125,4.113-2.125,8.641   c0,1.419,0.282,3.402,0.707,4.823c1.271,6.233,5.249,11.475,11.336,14.452c2.978,1.416,5.945,1.987,9.211,1.987   c7.651,0,14.592-4.115,18.276-10.915c4.26-7.935,8.651-18.141,12.336-31.461c1.13-3.969,1.979-7.932,2.978-11.898   c3.392-15.023,5.38-30.614,5.38-46.486C340.671,240.627,338.965,224.895,335.573,209.732L335.573,209.732z" fill="#FFFFFF" fill-rule="evenodd"/><path clip-rule="evenodd" d="M151.489,235.738c27.921,15.021,45.915,43.499,48.04,76.522   v-0.285c-0.424-3.398,0.282-7.225,1.979-10.484c0.293-0.566,0.434-0.992,0.857-1.563c8.782-14.311,13.315-31.033,13.315-47.897   c0-3.396-0.419-6.94-0.565-10.486c-11.619-15.873-27.64-29.761-45.774-39.396c-2.549-1.416-5.95-2.408-8.929-2.408   c-7.081,0-13.602,3.971-16.857,10.06C138.734,219.296,142.272,230.916,151.489,235.738L151.489,235.738z" fill="#FFFFFF" fill-rule="evenodd"/><path clip-rule="evenodd" d="M217.951,245.373c0.142,3.543,0.707,7.087,0.707,10.769   c0,16.863-4.674,33.304-13.461,47.761c-0.424,0.424-0.57,0.988-0.848,1.412c-1.701,3.541-2.408,7.229-1.984,10.771   c0.707,6.098,3.957,11.762,9.489,15.303c1.564,0.852,2.978,1.561,4.537,1.986c1.984,0.709,3.968,0.852,5.951,0.852   c6.945,0,13.607-3.4,17.004-9.639c11.195-18.135,17.575-38.682,18.993-59.943c0.282-2.834,0.282-5.666,0.282-8.503   c0-24.229-6.521-47.899-18.987-68.729c-0.429-0.425-0.854-0.995-1.424-1.699c-1.271-1.7-2.973-3.258-4.674-4.537   c-3.401-1.979-7.086-3.402-11.053-3.402c-3.261,0-4.815,0.57-7.223,1.424c-2.413,0.991-4.82,2.404-7.233,4.815   c-2.119,2.404-3.401,4.817-4.532,7.225c-1.695,4.962-1.555,11.763,1.701,17.004C212.283,219.581,216.392,232.335,217.951,245.373   L217.951,245.373z" fill="#FFFFFF" fill-rule="evenodd"/><path clip-rule="evenodd" d="M294.337,235.167c-13.607-21.819-33.453-41.521-56.974-55.975   c0.283,0.285,0.283,0.285,0.283,0.285c1.7,0.992,2.978,2.411,4.532,4.111c0.287,0.427,0.712,1.134,1.141,1.699   c12.467,20.829,18.987,44.499,18.987,68.587c0,2.979,0,5.811-0.141,8.645c10.054,19.133,15.444,40.67,15.444,63.49   c0,1.697,0,4.537,0,6.799c0-2.406,0.707-4.818,1.564-7.086c0-0.424,0.277-0.85,0.414-0.99   c10.488-22.105,15.737-45.914,15.737-70.716C295.326,245.511,294.756,239.139,294.337,235.167L294.337,235.167z" fill="#FFFFFF" fill-rule="evenodd"/></g></svg>