<?xml version="1.0" ?><!DOCTYPE svg  PUBLIC '-//W3C//DTD SVG 1.1//EN'  'http://www.w3.org/Graphics/SVG/1.1/DTD/svg11.dtd'><svg enable-background="new 0 0 512 512" height="512px" id="Layer_1" version="1.1" viewBox="0 0 512 512" width="512px" xml:space="preserve" xmlns="http://www.w3.org/2000/svg" xmlns:xlink="http://www.w3.org/1999/xlink"><g><path d="M437.018,74.992C390.661,28.641,326.734,0,256.003,0C185.266,0,121.34,28.641,74.993,74.992   C28.631,121.338,0,185.269,0,256.005c0,70.727,28.631,134.657,74.993,181.013C121.34,483.364,185.266,512,256.003,512   c70.731,0,134.658-28.636,181.015-74.982C483.369,390.662,512,326.731,512,256.005C512,185.269,483.369,121.338,437.018,74.992z"/><path clip-rule="evenodd" d="M370.391,281.803c1.843-8.082,2.701-16.16,2.701-24.525   c0-2.979,0-5.952-0.288-8.79c-4.533-58.968-54.439-105.46-115.523-105.46c-6.67,0-13.329,0.434-19.852,1.56   c-10.34-6.376-22.537-10.062-35.72-10.062c-37.138,0-67.192,29.62-67.192,66.333c0,12.056,3.262,23.678,9.219,33.458   c-0.848,4.109-1.555,8.36-1.983,12.475c-0.142,3.539-0.425,6.937-0.425,10.486c0,63.077,51.886,114.255,115.953,114.255   c7.234,0,14.313-0.717,21.255-1.989c9.36,5.104,20.139,7.937,31.756,7.937c37.138,0,67.188-29.767,67.188-66.334   C377.479,300.65,374.788,290.583,370.391,281.803L370.391,281.803z M316.667,311.853c-5.245,7.371-13.182,13.323-23.385,17.721   c-10.345,4.109-22.396,6.094-36.432,6.094c-16.579,0-30.615-2.843-41.389-8.507c-7.8-4.256-14.177-9.647-19.14-16.731   c-4.816-6.937-7.229-13.888-7.229-20.694c0-4.25,1.419-7.648,4.826-10.764c2.974-2.842,7.225-4.406,12.047-4.406   c3.821,0,7.365,1.141,10.208,3.549c2.686,2.125,4.816,5.387,6.796,9.783c1.994,4.681,4.119,8.645,6.527,11.623   c2.267,2.837,5.528,5.527,9.633,7.512c4.393,1.989,9.926,2.832,16.873,2.832c9.633,0,17.569-1.979,23.385-5.952   c5.675-3.968,8.508-8.501,8.508-14.177c0-4.68-1.277-8.077-4.246-11.046c-3.408-2.843-7.518-4.968-12.485-6.664   c-5.246-1.565-12.471-3.403-21.26-5.114c-12.047-2.545-22.396-5.66-30.469-8.921c-8.225-3.539-14.889-8.361-19.852-14.464   c-1.561-1.979-2.837-4.104-3.963-6.376c-2.408-4.821-3.545-10.203-3.545-16.584c0-8.512,2.687-16.443,7.932-22.956   c5.246-6.811,12.622-11.91,22.537-15.318c9.639-3.827,20.978-5.528,33.882-5.528c10.496,0,19.563,1.277,27.223,3.544   c7.648,2.413,13.884,5.669,18.988,9.35c5.24,3.973,8.926,8.093,11.339,12.485c2.413,4.67,3.549,8.926,3.549,13.177   c0,4.109-1.56,7.8-4.685,10.92c-3.262,3.251-7.225,4.953-11.905,4.953c-4.251,0-7.653-0.979-9.92-2.968   c-2.126-1.984-4.544-4.822-6.942-9.219c-2.843-5.241-6.376-9.633-10.501-12.758c-3.822-2.833-10.34-4.246-19.271-4.246   c-8.361,0-15.172,1.696-20.135,4.963c-4.816,3.115-7.225,6.518-7.225,10.91c0,2.408,0.854,4.675,2.408,6.664   c1.707,1.837,3.974,3.686,6.947,5.246c3.115,1.408,6.099,2.544,9.214,3.397c0.712,0.283,1.277,0.283,1.984,0.434   c3.261,0.985,8.083,1.979,14.182,3.534c9.208,1.989,17.998,4.115,25.646,6.523c7.659,2.408,14.172,5.533,19.705,9.072   c5.675,3.403,10.063,8.078,13.041,13.465c3.125,5.533,4.675,12.333,4.675,20.27C324.745,295.838,322.055,304.336,316.667,311.853   L316.667,311.853z" fill="#FFFFFF" fill-rule="evenodd"/></g></svg>