<?xml version="1.0" ?><!DOCTYPE svg  PUBLIC '-//W3C//DTD SVG 1.1//EN'  'http://www.w3.org/Graphics/SVG/1.1/DTD/svg11.dtd'><svg enable-background="new 0 0 512 512" height="512px" id="Layer_1" version="1.1" viewBox="0 0 512 512" width="512px" xml:space="preserve" xmlns="http://www.w3.org/2000/svg" xmlns:xlink="http://www.w3.org/1999/xlink"><g><path d="M437.033,74.992C390.689,28.641,326.64,0,256.068,0C185.356,0,121.304,28.641,74.968,74.992   C28.765,121.338,0,185.269,0,256.005c0,70.726,28.765,134.657,74.968,181.013C121.304,483.364,185.356,512,256.068,512   c70.571,0,134.621-28.636,180.965-74.982C483.231,390.662,512,326.73,512,256.005C512,185.269,483.231,121.338,437.033,74.992z"/><path clip-rule="evenodd" d="M325.933,264.078c0-10.491,2.69-19.271,6.375-26.223   c7.939-15.308,20.548-22.956,21.4-23.385c-15.021-22.684-38.404-25.652-47.046-26.081c-19.835-1.984-38.823,12.051-48.888,12.051   s-25.938-11.622-42.514-11.485c-21.688,0.565-41.806,13.045-53.143,32.881c-3.543,6.104-5.955,12.763-7.651,19.71   c-9.641,37.845,5.521,84.479,24.091,111.973c10.624,15.737,23.667,33.745,40.383,33.028c16.298-0.561,22.391-10.632,42.085-10.632   c19.704,0,25.085,10.632,42.377,10.208c17.569-0.137,28.628-16.161,39.394-31.887c12.33-18.569,17.287-36.29,17.711-37.143   C360.083,316.815,326.356,303.629,325.933,264.078L325.933,264.078z" fill="#F5F5F5" fill-rule="evenodd"/><path clip-rule="evenodd" d="M293.762,166.847c9.075-10.92,14.885-26.369,13.466-41.535   c-13.037,0.419-28.765,8.507-37.98,19.705c-8.222,9.926-15.444,25.375-13.461,40.536c14.173,0.995,29.052-7.512,37.976-18.569   V166.847z" fill="#F5F5F5" fill-rule="evenodd"/></g></svg>