<?xml version="1.0" ?><!DOCTYPE svg  PUBLIC '-//W3C//DTD SVG 1.1//EN'  'http://www.w3.org/Graphics/SVG/1.1/DTD/svg11.dtd'><svg enable-background="new 0 0 512 512" height="512px" id="Layer_1" version="1.1" viewBox="0 0 512 512" width="512px" xml:space="preserve" xmlns="http://www.w3.org/2000/svg" xmlns:xlink="http://www.w3.org/1999/xlink"><g><path d="M437.013,74.982C390.803,28.642,326.732,0,256,0C185.41,0,121.343,28.642,74.988,74.982C28.634,121.34,0,185.407,0,255.997   c0,70.736,28.634,134.663,74.988,181.02C121.343,483.363,185.41,512,256,512c70.732,0,134.803-28.637,181.013-74.983   C483.367,390.66,512,326.733,512,255.997C512,185.407,483.367,121.34,437.013,74.982z"/><path clip-rule="evenodd" d="M299.661,215.598c-1.139-10.34-3.4-20.831-6.379-31.186   c-3.262-9.355-7.659-17.009-14.033-22.956c-6.381-5.392-14.032-8.078-23.391-8.078c-9.496,0-17.579,2.687-23.385,8.078   c-6.24,5.528-10.776,13.177-13.468,23.385c-2.835,10.346-4.965,20.417-5.813,30.757c-0.848,10.209-1.277,22.537-1.277,37.148   c0,8.926,0,17.004,0.43,23.381c0.421,6.391,0.848,14.04,1.696,22.966c0.853,9.066,2.13,16.722,4.114,22.532   c1.841,6.381,4.39,12.056,7.654,18.009c3.117,5.946,7.083,10.339,12.47,13.605c5.106,2.979,10.776,4.397,18.004,4.397   c6.806,0,12.616-1.419,18.147-4.397c5.24-3.267,9.354-7.659,12.473-13.605c3.117-5.953,5.952-12.047,7.656-18.009   c2.262-6.235,3.541-13.466,4.672-22.532c0.856-8.926,1.704-16.575,1.704-23.386c0-6.381,0.425-14.035,0.425-22.961   C300.936,238.56,300.509,226.235,299.661,215.598L299.661,215.598z M343.603,161.032c23.391,23.809,34.588,54.995,34.588,93.692   c0,35.442-11.624,66.057-34.588,92.139c-22.964,26.511-52.166,39.546-87.744,39.546c-35.01,0-64.354-13.035-87.175-39.122   c-22.964-26.081-34.728-57.12-34.728-92.138c0-38.703,11.34-70.309,34.162-93.693c22.537-24.243,51.878-35.86,87.74-35.86   C291.578,125.596,320.639,137.213,343.603,161.032L343.603,161.032z" fill="#FFFFFF" fill-rule="evenodd"/></g></svg>