<?xml version="1.0" ?><!DOCTYPE svg  PUBLIC '-//W3C//DTD SVG 1.1//EN'  'http://www.w3.org/Graphics/SVG/1.1/DTD/svg11.dtd'><svg enable-background="new 0 0 512 512" height="512px" id="Layer_1" version="1.1" viewBox="0 0 512 512" width="512px" xml:space="preserve" xmlns="http://www.w3.org/2000/svg" xmlns:xlink="http://www.w3.org/1999/xlink"><g><path d="M437.008,74.985C390.661,28.631,326.588,0,255.992,0C185.261,0,121.188,28.631,74.983,74.985   C28.631,121.337,0,185.266,0,255.998c0,70.734,28.631,134.663,74.983,181.012C121.188,483.367,185.261,512,255.992,512   c70.596,0,134.669-28.633,181.016-74.99C483.359,390.661,512,326.732,512,255.998C512,185.266,483.359,121.337,437.008,74.985z"/><path clip-rule="evenodd" d="M96.53,249.904c0,0,1.277-23.389,27.506-23.389   c26.5,0,26.5,23.389,26.5,23.389H96.53z M214.185,289.167c-28.924,0.571-28.924-30.614-28.924-30.614s-1.272-30.196,28.924-30.62   c29.333-0.71,28.914,31.183,28.914,31.183S243.099,288.458,214.185,289.167L214.185,289.167z M294.125,289.738   c0,0-18.71,0-19.705-14.606c-1.418-16.017,28.212-14.881,28.212-14.881h20.7C324.033,260.251,327.719,290.444,294.125,289.738   L294.125,289.738z M124.737,214.326c-45.928,0-47.906,36.144-47.346,45.218c0,0-2.408,41.811,45.927,41.811   c41.818,0,43.808-26.223,43.808-26.223h-18.998c0,0-3.69,14.035-24.81,13.326c-26.223,0-27.494-26.223-27.494-26.223h71.579   l0.142,17.718c0,0,0,12.899-0.561,18.996h17.711l0.565-11.198c0,0,8.648,13.604,33.028,13.604c16.303,0,30.333-6.515,38.133-18.99   c4.393,14.457,20.831,18.99,34.588,18.99c17.01,0,26.93-4.816,34.306-14.027l0.702,11.622h17.015c0-0.565-0.565-6.809-0.565-19.702   c0-12.899,0.565-23.814,0-31.893c0-1.704,0-4.115-0.425-6.949l31.039,58.544l-16.584,30.617h20.981L434.6,219.145h-19.705   l-31.322,62.511l-31.326-62.511h-21.685l1.413,2.126c-5.674-4.395-14.741-7.654-28.777-8.222c0,0-37.985-0.707-42.383,23.958   h19.705c0,0,1.271-12.192,21.4-11.769c19.14,0.712,22.113,9.924,22.113,21.687c0,0-16.014,0.43-21.401,0.43   c-7.512,0-28.065,0.709-39.399,9.779c-0.722-26.933-21.27-42.245-43.52-42.245c-23.396,0-32.034,13.468-32.034,13.468v-46.064   h-20.694l0.142,58.113C162.724,227.649,151.677,214.326,124.737,214.326L124.737,214.326z" fill="#FFFFFF" fill-rule="evenodd"/></g></svg>