<?xml version="1.0" ?><!DOCTYPE svg  PUBLIC '-//W3C//DTD SVG 1.1//EN'  'http://www.w3.org/Graphics/SVG/1.1/DTD/svg11.dtd'><svg enable-background="new 0 0 512 512" height="512px" id="Layer_1" version="1.1" viewBox="0 0 512 512" width="512px" xml:space="preserve" xmlns="http://www.w3.org/2000/svg" xmlns:xlink="http://www.w3.org/1999/xlink"><g><path d="M437.033,74.985C390.692,28.629,326.643,0,256.071,0C185.358,0,121.304,28.629,74.968,74.985   C28.765,121.34,0,185.267,0,255.999c0,70.731,28.765,134.66,74.968,181.013C121.304,483.363,185.358,512,256.071,512   c70.571,0,134.621-28.637,180.962-74.988C483.231,390.659,512,326.73,512,255.999C512,185.267,483.231,121.34,437.033,74.985z"/><path clip-rule="evenodd" d="M380.776,184.413c0.422-0.565,0.422-1.418,0-2.41   c-12.757-21.119-30.75-38.835-51.865-51.311c-22.11-12.758-47.334-19.561-72.84-19.561c-44.217,0-85.592,19.982-113.229,54.573   c-0.567,0.851-0.567,1.702-0.141,2.55l40.673,70.734c0.424,0.565,1.274,0.99,2.122,0.99h0.28c0.854,0,1.701-0.565,1.986-1.699   c8.081-31.044,36.139-52.731,68.308-52.731c1.84,0,4.108,0,6.094,0.283c0.14,0,0.14,0,0.14,0h116.203   C379.358,185.832,380.209,185.408,380.776,184.413L380.776,184.413z M277.469,324.746c-0.709-0.712-1.56-1.131-2.41-0.848   c-6.092,1.701-12.467,2.552-18.987,2.552c-27.213,0-52.293-15.878-63.911-40.682l0,0L133.914,184.84   c-0.421-0.565-1.133-0.992-1.983-0.992l0,0c-0.851,0-1.698,0.427-2.125,0.992c-12.043,21.689-18.563,46.208-18.563,71.159   c0,34.871,12.613,68.465,35.429,94.971c22.67,26.084,53.708,43.09,87.858,48.191c0,0.142,0.28,0.142,0.28,0.142   c0.853,0,1.703-0.419,2.13-1.27l40.668-70.732C278.031,326.45,278.031,325.6,277.469,324.746L277.469,324.746z M388.853,201.566   h-81.907c-0.854,0-1.704,0.567-2.125,1.56c-0.288,0.854,0,1.846,0.565,2.55c13.604,13.323,21.257,31.327,21.257,50.323   c0,14.459-4.395,28.209-12.614,40.116c0,0.142,0,0.142,0,0.142l-58.525,100.926c-0.421,0.851-0.421,1.701,0,2.41   c0.568,0.849,1.419,1.275,2.269,1.275l0,0c38.261-0.427,74.117-15.734,101.322-43.093c26.925-27.074,41.807-63.503,41.807-101.776   c0-18.287-3.404-36.146-9.923-52.873C390.553,202.134,389.705,201.566,388.853,201.566L388.853,201.566z M201.939,255.999   c0,29.77,24.37,54.149,54.132,54.149c29.899,0,54.134-24.38,54.134-54.149c0-29.911-24.234-54.294-54.134-54.294   C226.31,201.705,201.939,226.088,201.939,255.999L201.939,255.999z" fill="#FFFFFF" fill-rule="evenodd"/></g></svg>