<?xml version="1.0" ?><!DOCTYPE svg  PUBLIC '-//W3C//DTD SVG 1.1//EN'  'http://www.w3.org/Graphics/SVG/1.1/DTD/svg11.dtd'><svg enable-background="new 0 0 512 512" height="512px" id="Layer_1" version="1.1" viewBox="0 0 512 512" width="512px" xml:space="preserve" xmlns="http://www.w3.org/2000/svg" xmlns:xlink="http://www.w3.org/1999/xlink"><g><path d="M437.008,74.963C390.661,28.765,326.588,0,255.993,0c-70.732,0-134.805,28.765-181.01,74.963   C28.631,121.305,0,185.355,0,256.073c0,70.566,28.631,134.625,74.983,180.959C121.188,483.235,185.261,512,255.993,512   c70.595,0,134.668-28.765,181.015-74.968C483.359,390.698,512,326.64,512,256.073C512,185.355,483.359,121.305,437.008,74.963z"/><path d="M363.443,173.88c10.35,18.847,6.806,41.093,2.838,53.989c-21.831,71.284-120.346,67.598-134.521,67.598   c-14.178,0-17.575,13.177-17.575,13.177l-10.638,46.34c-2.832,16.438-17.716,15.591-17.716,15.591s-19.28,0-32.033,0   c-0.854,0-1.419,0-2.408,0c0,2.834,0.565,11.616,11.052,11.616c12.898,0,32.18,0,32.18,0s14.596,0.855,17.716-15.584l10.486-46.342   c0,0,3.261-13.461,17.726-13.461c14.172,0,112.691,3.965,134.512-67.318C379.887,223.475,383.855,194.423,363.443,173.88z" fill="#FFFFFF"/><path d="M193.632,344.921l10.485-46.337c0,0,3.398-13.322,17.862-13.322c14.172,0,112.687,3.826,134.518-67.452   c7.941-26.075,13.61-87.859-86.04-87.859H198.73c0,0-15.161-0.711-18.852,15.301l-46.781,202.506c0,0-1.979,12.755,10.628,12.755   c13.046,0,32.18,0,32.18,0S190.647,361.362,193.632,344.921z M220.562,227.301l9.638-41.378c0,0,3.115-11.192,12.899-12.754   c9.921-1.698,26.5,0.28,30.908,1.136c27.772,5.244,21.82,31.462,21.82,31.462c-5.388,40.949-68.89,35.286-68.89,35.286   C216.87,237.365,220.562,227.301,220.562,227.301z" fill="#FFFFFF"/></g></svg>