<?xml version="1.0" ?><!DOCTYPE svg  PUBLIC '-//W3C//DTD SVG 1.1//EN'  'http://www.w3.org/Graphics/SVG/1.1/DTD/svg11.dtd'><svg enable-background="new 0 0 512 512" height="512px" id="Layer_1" version="1.1" viewBox="0 0 512 512" width="512px" xml:space="preserve" xmlns="http://www.w3.org/2000/svg" xmlns:xlink="http://www.w3.org/1999/xlink"><g><path d="M437.015,74.982C390.663,28.641,326.731,0,255.999,0C185.267,0,121.338,28.641,74.986,74.982   C28.634,121.34,0,185.407,0,255.997c0,70.736,28.634,134.663,74.986,181.02C121.338,483.363,185.267,512,255.999,512   c70.732,0,134.664-28.637,181.016-74.983C483.366,390.66,512,326.733,512,255.997C512,185.407,483.366,121.34,437.015,74.982z"/><path clip-rule="evenodd" d="M334.953,196.883c21.548-0.556,20.697-20.689,20.697-20.689   s0.141-21.401-22.54-20.549c-22.817,0.854-20.697,21.694-20.697,21.694S313.549,197.458,334.953,196.883L334.953,196.883z    M331.981,215.598c-9.499,0.43-16.59,3.974-16.59,15.737c0,26.505,0,78.814,0,92.566c0,14.03-26.503,16.868-26.503-0.858   c0-17.993-0.285-34.013,0-60.24c-12.902-74.987-88.173-49.043-92.136-24.526c0-27.919,0-41.394,0-59.1   c-7.939-36.719-39.271-19.568-39.271-19.568s-0.99,163.435-0.99,181.161c0,17.438,40.261,18.992,40.261-1.137   s-0.285-49.467,0-66.909c0.422-30.474,52.868-34.589,52.868-1.984c0,21.835,0.992,27.924,0.992,50.32   c0,22.118,27.5,35.446,52.027,35.446c24.519,0,52.02-12.057,52.02-39.405c0-27.51,0-67.904,0-88.599   C354.658,218.869,342.186,215.179,331.981,215.598L331.981,215.598z" fill="#FFFFFF" fill-rule="evenodd"/></g></svg>