<?xml version="1.0" ?><!DOCTYPE svg  PUBLIC '-//W3C//DTD SVG 1.1//EN'  'http://www.w3.org/Graphics/SVG/1.1/DTD/svg11.dtd'><svg enable-background="new 0 0 512 512" height="512px" id="Layer_1" version="1.1" viewBox="0 0 512 512" width="512px" xml:space="preserve" xmlns="http://www.w3.org/2000/svg" xmlns:xlink="http://www.w3.org/1999/xlink"><g><path d="M437.013,74.968C390.803,28.779,326.729,0,255.998,0C185.407,0,121.34,28.779,74.988,74.968   C28.634,121.312,0,185.356,0,256.078c0,70.566,28.634,134.616,74.988,180.966C121.34,483.377,185.407,512,255.998,512   c70.731,0,134.805-28.623,181.015-74.956C483.369,390.694,512,326.645,512,256.078C512,185.356,483.369,121.312,437.013,74.968z"/><path clip-rule="evenodd" d="M153.374,323.384L153.374,323.384   c-5.812,0-10.628-4.815-10.628-10.766v-43.22c0-5.956,4.816-10.776,10.628-10.776c5.952,0,11.062,4.82,11.062,10.776v43.22   C164.436,318.568,159.326,323.384,153.374,323.384L153.374,323.384z M196.752,323.384L196.752,323.384   c-6.094,0-10.915-4.815-10.915-10.766v-64.767c0-5.81,4.821-10.912,10.915-10.912c5.952,0,10.769,5.103,10.769,10.912v64.767   C207.521,318.568,202.704,323.384,196.752,323.384L196.752,323.384z M239.842,323.384L239.842,323.384   c-5.952,0-10.773-5.956-10.773-13.603v-80.913c0-7.374,4.821-13.324,10.773-13.324c5.948,0,10.774,5.95,10.774,13.324v80.913   C250.616,317.428,245.79,323.384,239.842,323.384L239.842,323.384z M374.646,323.384c20.978,0,37.845-16.58,37.845-37.84   c0-20.971-16.867-37.692-37.845-37.692c-4.114,0-8.083,0.565-12.192,2.271c-6.664-35.281-37.421-61.501-73.993-61.501   c-5.523,0-10.915,0.429-16.161,1.555v133.207h62.518H374.646z M110.283,323.384L110.283,323.384   c-5.811,0-10.633-4.815-10.633-10.766v-21.542c0-5.95,4.822-10.775,10.633-10.775c5.952,0,10.773,4.825,10.773,10.775v21.542   C121.057,318.568,116.235,323.384,110.283,323.384L110.283,323.384z" fill="#F5F5F5" fill-rule="evenodd"/></g></svg>