<?xml version="1.0" ?><!DOCTYPE svg  PUBLIC '-//W3C//DTD SVG 1.1//EN'  'http://www.w3.org/Graphics/SVG/1.1/DTD/svg11.dtd'><svg enable-background="new 0 0 512 512" height="512px" id="Layer_1" version="1.1" viewBox="0 0 512 512" width="512px" xml:space="preserve" xmlns="http://www.w3.org/2000/svg" xmlns:xlink="http://www.w3.org/1999/xlink"><g><path d="M437.018,74.967C390.661,28.779,326.734,0,256.003,0C185.266,0,121.34,28.779,74.993,74.967   C28.631,121.311,0,185.355,0,256.078c0,70.565,28.631,134.615,74.993,180.965C121.34,483.377,185.266,512,256.003,512   c70.731,0,134.658-28.623,181.015-74.957C483.369,390.693,512,326.644,512,256.078C512,185.355,483.369,121.311,437.018,74.967z"/><g><path clip-rule="evenodd" d="M184.842,200.099c-28.768,0-52.445,20.972-56.136,48.317    c-0.561,2.418-0.707,5.104-0.707,7.662c0,30.889,25.369,55.827,56.843,55.827c31.332,0,56.701-24.938,56.701-55.827    c0-8.51-1.706-16.303-4.952-23.389C227.372,213.424,207.662,200.099,184.842,200.099z" fill="#F5F5F5" fill-rule="evenodd"/><path clip-rule="evenodd" d="M383.86,251.535c-2.262-28.91-26.788-51.437-56.556-51.437    c-23.107,0-42.813,13.603-51.89,33.01c-2.964,7.091-4.958,14.742-4.958,22.97c0,30.889,25.375,55.827,56.848,55.827    c31.327,0,56.692-24.938,56.692-55.827C383.997,254.66,383.997,253.095,383.86,251.535z" fill="#F5F5F5" fill-rule="evenodd"/></g></g></svg>