<?xml version="1.0" ?><!DOCTYPE svg  PUBLIC '-//W3C//DTD SVG 1.1//EN'  'http://www.w3.org/Graphics/SVG/1.1/DTD/svg11.dtd'><svg enable-background="new 0 0 512 512" height="512px" id="Layer_1" version="1.1" viewBox="0 0 512 512" width="512px" xml:space="preserve" xmlns="http://www.w3.org/2000/svg" xmlns:xlink="http://www.w3.org/1999/xlink"><g><path d="M437.015,74.992C390.663,28.641,326.73,0,255.999,0C185.267,0,121.338,28.641,74.985,74.992   C28.634,121.338,0,185.269,0,256.005c0,70.727,28.634,134.656,74.985,181.013C121.338,483.364,185.267,512,255.999,512   c70.731,0,134.664-28.636,181.016-74.982C483.366,390.661,512,326.731,512,256.005C512,185.269,483.366,121.338,437.015,74.992z"/><path clip-rule="evenodd" d="M255.999,174.631l82.356,50.895l-82.356,50.749l-82.213-50.749   L255.999,174.631z M337.929,317.8l-24.519,16.024l-57.126-47.346l-57.411,47.346L174.352,317.8v18.004l81.933,48.905l81.645-48.905   V317.8z M338.355,225.526l56.132-45.074l-81.362-53.298l-57.126,47.477l-57.126-47.477l-81.359,53.298l56.272,45.074   l-56.272,45.074l81.359,53.157l57.126-47.482l57.126,47.482l81.362-53.157L338.355,225.526z" fill="#FFFFFF" fill-rule="evenodd"/></g></svg>