<?xml version="1.0" ?><!DOCTYPE svg  PUBLIC '-//W3C//DTD SVG 1.1//EN'  'http://www.w3.org/Graphics/SVG/1.1/DTD/svg11.dtd'><svg enable-background="new 0 0 512 512" height="512px" id="Layer_1" version="1.1" viewBox="0 0 512 512" width="512px" xml:space="preserve" xmlns="http://www.w3.org/2000/svg" xmlns:xlink="http://www.w3.org/1999/xlink"><g><path d="M437.008,74.968C390.661,28.779,326.588,0,255.993,0c-70.732,0-134.805,28.779-181.01,74.968   C28.631,121.312,0,185.356,0,256.078c0,70.566,28.631,134.616,74.983,180.966C121.188,483.377,185.261,512,255.993,512   c70.595,0,134.668-28.623,181.015-74.956C483.359,390.694,512,326.645,512,256.078C512,185.356,483.359,121.312,437.008,74.968z"/><path clip-rule="evenodd" d="M249.329,213.843l-0.985-1.276l-37.426-63.909l-2.125-3.831   l-2.126,3.831L120.351,297.31l-0.571,1.277l0.571,1.281l37.415,64.046l2.403,3.83l2.272-3.83l85.902-148.647L249.329,213.843z    M216.734,306.804h-1.56l-0.854,1.423l-36.851,63.207l-2.413,3.963h177.324l0.575-1.424l36.992-63.197l2.262-3.972H216.734z    M312.694,288.956l0.712,1.272h1.555l72.862-0.146h4.388l-2.262-3.962l-86.181-148.092l-0.717-1.419h-1.409l-72.716,0.283h-4.538   l2.125,3.967L312.694,288.956z" fill="#FFFFFF" fill-rule="evenodd"/></g></svg>