<?xml version="1.0" ?><!DOCTYPE svg  PUBLIC '-//W3C//DTD SVG 1.1//EN'  'http://www.w3.org/Graphics/SVG/1.1/DTD/svg11.dtd'><svg enable-background="new 0 0 512 512" height="512px" id="Layer_1" version="1.1" viewBox="0 0 512 512" width="512px" xml:space="preserve" xmlns="http://www.w3.org/2000/svg" xmlns:xlink="http://www.w3.org/1999/xlink"><g><path d="M437.012,74.992C390.66,28.641,326.733,0,255.997,0S121.334,28.641,74.982,74.992C28.636,121.338,0,185.269,0,256.005   c0,70.726,28.636,134.657,74.982,181.013C121.334,483.364,185.261,512,255.997,512s134.663-28.636,181.015-74.982   C483.358,390.662,512,326.73,512,256.005C512,185.269,483.358,121.338,437.012,74.992z"/><path clip-rule="evenodd" d="M155.069,264.365h41.823c9.351,0,25.364,4.109,25.364,21.83   c0,9.355-7.366,20.266-16.58,20.266h-50.607V264.365z M289.742,180.306h75.402v25.092h-75.402V180.306z M355.087,264.365h-55.288   c1.702-14.883,13.036-24.945,27.783-24.945C342.183,239.42,352.957,249.628,355.087,264.365L355.087,264.365z M297.951,281.097   h92.563c0-1.288,0-2.843,0-4.109c0-34.735-25.087-63.088-62.932-63.088c-38.128,0-63.083,28.353-63.083,63.088   c0,34.997,24.955,63.072,63.083,63.072c37.845,0,55.995-21.685,61.664-50.607h-34.159c-2.979,14.884-11.773,25.38-27.505,25.38   C311.567,314.832,299.375,299.943,297.951,281.097L297.951,281.097z M256.144,289.452c0-18.135-12.197-33.876-28.631-39.546   c11.895-7.517,19.982-20.835,19.982-36.007c0-23.102-18.856-41.954-41.818-41.954h-84.343V340.06h84.343   C233.178,340.06,256.144,317.512,256.144,289.452L256.144,289.452z M196.893,239.42h-41.823v-34.022h41.823   c9.351,0,17.014,7.664,17.014,17.15C213.906,231.767,206.243,239.42,196.893,239.42L196.893,239.42z" fill="#FFFFFF" fill-rule="evenodd"/></g></svg>