<svg id="SvgjsSvg1014" width="4755.572799097065px" height="5000px" xmlns="http://www.w3.org/2000/svg" version="1.1" xmlns:xlink="http://www.w3.org/1999/xlink" xmlns:svgjs="http://svgjs.com/svgjs" viewBox="0 0 210.671875 221.5"><defs id="SvgjsDefs1015"></defs><g id="SvgjsG1017" transform="rotate(0 105.328125 58.3515625)"><svg width="130" viewBox="0 0 95.24085998535156 85.50981140136719" xmlns="http://www.w3.org/2000/svg" version="1.1" xmlns:xlink="http://www.w3.org/1999/xlink" xmlns:svgjs="http://svgjs.com/svgjs" preserveAspectRatio="none" height="116.703125" x="40.328125" y="0"><g><svg data-color="1" xmlns:dc="http://purl.org/dc/elements/1.1/" xmlns:cc="http://creativecommons.org/ns#" xmlns:rdf="http://www.w3.org/1999/02/22-rdf-syntax-ns#" xmlns:svg="http://www.w3.org/2000/svg" xmlns="http://www.w3.org/2000/svg" xmlns:sodipodi="http://sodipodi.sourceforge.net/DTD/sodipodi-0.dtd" xmlns:inkscape="http://www.inkscape.org/namespaces/inkscape" version="1.1" x="0px" y="0px" viewBox="1.955841302871704 6.3976359367370605 95.24085998535156 85.50981140136719" enable-background="new 0 0 100 100" xml:space="preserve" width="95.24085998535156" height="85.50981140136719" fill="#000000"><path style="" d=""></path><g transform="translate(1.9660085,6.3638598)"><path d="M 5.2795276,85.003935 C 0.77952756,81.956691 -1.3818898,68.314959 0.92125985,57.437006 1.2755906,55.807085 2.1614173,53.255904 2.7992126,51.980314 c 0.3897638,-0.744095 0.4251969,-1.275591 0.3897638,-5.952756 0,-6.661417 0.3897638,-9.283464 2.2322835,-15.023622 C 9.6023622,18.141732 19.38189,7.8307085 32.137795,2.8346456 34.476378,1.9133858 38.125984,0.92125982 40.996063,0.42519684 44.220473,-0.14173228 51.413386,-0.07086614 54.673229,0.49606298 67.889764,2.9409448 78.661418,10.417323 85.6063,21.968503 c 3.082677,5.102362 4.996063,10.38189 6.059055,16.724409 0.283464,1.629922 0.389763,3.57874 0.389763,7.299213 0.03543,4.677165 0.07087,5.173228 0.46063,5.952756 0.708662,1.346456 1.700788,4.677165 2.090552,6.944881 1.559055,9.212598 0.106299,19.771653 -3.330709,24.448819 -1.771654,2.444881 -3.897638,2.586614 -5.811024,0.389763 C 80.397638,77.988187 79.653544,59.775589 84.188977,51.342518 85.5,48.862203 87.448819,47.480314 88.866142,48.01181 l 0.566929,0.212598 -0.141732,-0.885827 C 88.759843,43.830708 87.200788,37.771653 85.889764,33.980314 84.507874,29.976377 82.275591,25.759842 79.72441,22.358267 78.271654,20.409448 74.76378,16.830708 72.779528,15.271653 61.830709,6.6968502 46.594488,4.2519684 33.023622,8.9291336 23.775591,12.11811 16.192913,18.389763 11.090551,27.035432 7.8661418,32.456692 6.1653544,38.976377 6.1653544,45.744093 l 0,2.480315 0.7440944,0 c 1.5944882,0 2.8346457,1.027559 4.1102362,3.437008 1.913386,3.614173 2.940945,8.822834 2.976378,15.129921 0,7.440945 -1.488189,13.818897 -4.03937,17.007873 -1.3818898,1.771654 -3.1889764,2.232284 -4.6771654,1.204725 l 0,0 z" style="" fill-rule="nonzero"></path></g></svg></g><defs id="SvgjsDefs1016"></defs></svg></g><g id="SvgjsG1019" transform="rotate(0 105.328125 169.1015625)"><svg xmlns="http://www.w3.org/2000/svg" xmlns:xlink="http://www.w3.org/1999/xlink" width="202.15625" viewBox="-1.2400000095367432 14.520000457763672 202.16000366210938 38.79999923706055" overflow="visible" style="overflow: visible;" transform="" version="1.1" xmlns:svgjs="http://svgjs.com/svgjs" preserveAspectRatio="none" height="38.796875" x="4.25" y="149.703125" fill="#000000" stroke="none"><path stroke="none" fill="#000000" d="M16.04 19.08L16.28 20.36L16.28 20.36Q14.64 21.60 12.84 22.48L12.84 22.48L12.84 38.72L12.84 38.72Q12.84 44.32 10.06 47.72L10.06 47.72L10.06 47.72Q7.28 51.12 0.12 53.32L0.12 53.32L-1.24 50.96L-1.24 50.96Q2.04 48.88 3.24 46.34L3.24 46.34L3.24 46.34Q4.44 43.80 4.48 39.92L4.48 39.92L4.48 21.84L1.24 21.28L1.28 19.08L16.04 19.08ZM42.56 35.28L42.56 36.80L42.56 36.80Q42.56 42.40 41.96 45.72L41.96 45.72L17.92 45.72L17.68 44.44L17.68 44.44Q19.16 43.32 21.08 42.36L21.08 42.36L21.08 21.80L18 21.28L18.04 19.08L32.64 19.08L32.88 20.36L32.88 20.36Q31.40 21.48 29.48 22.44L29.48 22.44L29.48 41.68L35.80 40.96L37.80 34.84L42.56 35.28ZM59.64 36.52L55.96 36.56L55.96 42.64L60.92 43.52L60.88 45.72L44.72 45.72L44.48 44.44L44.48 44.44Q45.56 43.56 47.56 42.52L47.56 42.52L47.56 21.80L44.52 21.28L44.56 19.08L59.24 18.76L59.24 18.76Q64.16 18.72 67.30 21.30L67.30 21.30L67.30 21.30Q70.44 23.88 70.44 27.88L70.44 27.88L70.44 27.88Q70.44 31.64 67.40 34.06L67.40 34.06L67.40 34.06Q64.36 36.48 59.64 36.52L59.64 36.52ZM60.24 22.64L55.96 23.24L55.96 32.08L55.96 32.08Q57.04 32.40 58.12 32.40L58.12 32.40L58.12 32.40Q60.04 32.40 61.02 31.08L61.02 31.08L61.02 31.08Q62 29.76 62 27.80L62 27.80L62 27.80Q62 26.28 61.52 24.76L61.52 24.76L61.52 24.76Q61.04 23.24 60.24 22.64L60.24 22.64ZM110.84 43.04L113.68 43.52L113.64 45.72L99.16 45.72L98.92 44.44L98.92 44.44Q100.32 43.36 101.92 42.56L101.92 42.56L100.68 39.24L92.52 39.24L91.12 42.96L94.36 43.52L94.32 45.72L82.84 45.72L82.60 44.44L82.60 44.44Q83.96 43.36 85.96 42.36L85.96 42.36L94.24 21.80L93.56 19.92L100.84 18.12L110.84 43.04ZM93.88 35.56L99.32 35.56L96.60 28.16L93.88 35.56ZM138.48 41.32L138.60 43.12L132.84 46.40L132.84 46.40Q131.52 46.36 130.28 45.46L130.28 45.46L130.28 45.46Q129.04 44.56 128.24 43L128.24 43L128.24 43Q125.08 45.40 122.16 46.40L122.16 46.40L122.16 46.40Q120.72 46.56 118.94 45.80L118.94 45.80L118.94 45.80Q117.16 45.04 116.04 43.32L116.04 43.32L116.04 43.32Q115.56 42.56 115.52 39.60L115.52 39.60L115.52 29.88L112.52 29.12L112.44 27.16L112.44 27.16Q116.28 25.80 121.20 25.60L121.20 25.60L123.56 27.72L123.56 37.96L123.56 37.96Q123.56 41.32 126.40 41.08L126.40 41.08L127.36 40.92L127.36 29.68L125.32 28.96L125.24 27L125.24 27Q128.64 25.72 133.04 25.60L133.04 25.60L135.40 27.72L135.40 40.16L135.40 40.16Q135.40 41.40 136.36 41.40L136.36 41.40L137.68 41.36L138.48 41.32ZM163.84 41.32L163.96 43.12L158.20 46.40L158.20 46.40Q156.80 46.40 155.54 45.48L155.54 45.48L155.54 45.48Q154.28 44.56 153.48 42.92L153.48 42.92L153.40 42.92L148.84 46.40L148.84 46.40Q144.96 46.44 142.48 43.58L142.48 43.58L142.48 43.58Q140 40.72 140 36.36L140 36.36L140 36.36Q140 31.68 142.98 28.72L142.98 28.72L142.98 28.72Q145.96 25.76 150.84 25.76L150.84 25.76L152.72 25.88L152.72 20.56L149.72 19.80L149.64 17.80L149.64 17.80Q153.44 16.48 158.40 16.24L158.40 16.24L160.76 18.40L160.76 40.16L160.76 40.16Q160.76 41.40 161.72 41.40L161.72 41.40L163.04 41.36L163.84 41.32ZM148.36 35.56L148.36 35.56L148.36 35.56Q148.36 37.80 149.26 39.28L149.26 39.28L149.26 39.28Q150.16 40.76 151.80 40.76L151.80 40.76L152.72 40.64L152.72 30.16L152.72 30.16Q151.64 29.76 150.40 29.68L150.40 29.68L150.40 29.68Q148.36 31.64 148.36 35.56ZM171.92 24L171.92 24L171.92 24Q168.68 22.52 166.60 19.92L166.60 19.92L166.60 19.92Q168.32 16.60 171.04 14.52L171.04 14.52L171.04 14.52Q174.08 16.24 176.08 19.16L176.08 19.16L176.08 19.16Q174.56 22.12 171.92 24ZM175.52 27.72L175.52 42.20L175.52 42.20Q177.24 42.92 178.40 43.76L178.40 43.76L178.36 45.72L164.48 45.72L164.44 44.32L164.44 44.32Q165.72 43.52 167.48 42.84L167.48 42.84L167.48 29.88L164.48 29.12L164.40 27.16L164.40 27.16Q168.24 25.80 173.16 25.60L173.16 25.60L175.52 27.72ZM180.20 35.92L180.20 35.92L180.20 35.92Q180.20 31.36 183.14 28.46L183.14 28.46L183.14 28.46Q186.08 25.56 190.56 25.56L190.56 25.56L190.56 25.56Q195.08 25.56 198 28.50L198 28.50L198 28.50Q200.92 31.44 200.92 36.08L200.92 36.08L200.92 36.08Q200.92 40.72 198.06 43.62L198.06 43.62L198.06 43.62Q195.20 46.52 190.76 46.52L190.76 46.52L190.76 46.52Q186.24 46.52 183.22 43.54L183.22 43.54L183.22 43.54Q180.20 40.56 180.20 35.92ZM191.72 42.44L191.72 42.44L191.72 42.44Q192.84 41.48 192.84 36.56L192.84 36.56L192.84 36.56Q192.84 29.88 190.32 29.88L190.32 29.88L190.32 29.88Q189.64 29.88 189.24 30.16L189.24 30.16L189.24 30.16Q188.28 31.64 188.28 36.16L188.28 36.16L188.28 36.16Q188.28 42.60 190.88 42.60L190.88 42.60L190.88 42.60Q191.28 42.60 191.72 42.44Z" transform="rotate(0 99.84000182151794 33.920000076293945)"></path><defs id="SvgjsDefs1018"></defs></svg></g><g id="SvgjsG1021" transform="rotate(0 105.3359375 212.6171875)"><svg xmlns="http://www.w3.org/2000/svg" xmlns:xlink="http://www.w3.org/1999/xlink" width="210.671875" viewBox="1.9200000762939453 4.150000095367432 210.6800079345703 11.770000457763672" overflow="visible" style="overflow: visible;" transform="" version="1.1" xmlns:svgjs="http://svgjs.com/svgjs" preserveAspectRatio="none" height="11.765625" x="0" y="206.734375" fill="#000000" stroke="none"><path stroke="none" fill="#000000" d="M4.84 11.23L2.74 11.23L2.74 15.79L1.92 15.79L1.92 4.47L4.84 4.47L4.84 4.47Q6.83 4.47 7.84 5.34L7.84 5.34L7.84 5.34Q8.86 6.22 8.86 7.83L8.86 7.83L8.86 7.83Q8.86 8.58 8.58 9.20L8.58 9.20L8.58 9.20Q8.30 9.82 7.78 10.28L7.78 10.28L7.78 10.28Q7.26 10.73 6.52 10.98L6.52 10.98L6.52 10.98Q5.78 11.23 4.84 11.23L4.84 11.23ZM2.74 5.12L2.74 10.58L4.84 10.58L4.84 10.58Q5.59 10.58 6.18 10.37L6.18 10.37L6.18 10.37Q6.78 10.16 7.19 9.79L7.19 9.79L7.19 9.79Q7.60 9.42 7.82 8.92L7.82 8.92L7.82 8.92Q8.04 8.42 8.04 7.83L8.04 7.83L8.04 7.83Q8.04 6.53 7.24 5.82L7.24 5.82L7.24 5.82Q6.43 5.12 4.84 5.12L4.84 5.12L2.74 5.12ZM12.55 15.79L11.79 15.79L11.79 7.83L12.19 7.83L12.19 7.83Q12.33 7.83 12.39 7.89L12.39 7.89L12.39 7.89Q12.45 7.94 12.46 8.08L12.46 8.08L12.52 9.76L12.52 9.76Q12.90 8.79 13.54 8.24L13.54 8.24L13.54 8.24Q14.18 7.70 15.12 7.70L15.12 7.70L15.12 7.70Q15.48 7.70 15.78 7.77L15.78 7.77L15.78 7.77Q16.09 7.85 16.36 7.99L16.36 7.99L16.26 8.52L16.26 8.52Q16.23 8.65 16.10 8.65L16.10 8.65L16.10 8.65Q16.05 8.65 15.96 8.62L15.96 8.62L15.96 8.62Q15.87 8.58 15.74 8.54L15.74 8.54L15.74 8.54Q15.61 8.50 15.42 8.47L15.42 8.47L15.42 8.47Q15.22 8.44 14.98 8.44L14.98 8.44L14.98 8.44Q14.07 8.44 13.49 9L13.49 9L13.49 9Q12.91 9.56 12.55 10.62L12.55 10.62L12.55 15.79ZM22.18 7.70L22.18 7.70L22.18 7.70Q23.03 7.70 23.71 8.00L23.71 8.00L23.71 8.00Q24.38 8.29 24.85 8.82L24.85 8.82L24.85 8.82Q25.31 9.36 25.56 10.12L25.56 10.12L25.56 10.12Q25.80 10.87 25.80 11.81L25.80 11.81L25.80 11.81Q25.80 12.74 25.56 13.50L25.56 13.50L25.56 13.50Q25.31 14.25 24.85 14.78L24.85 14.78L24.85 14.78Q24.38 15.32 23.71 15.61L23.71 15.61L23.71 15.61Q23.03 15.90 22.18 15.90L22.18 15.90L22.18 15.90Q21.32 15.90 20.64 15.61L20.64 15.61L20.64 15.61Q19.97 15.32 19.50 14.78L19.50 14.78L19.50 14.78Q19.03 14.25 18.79 13.50L18.79 13.50L18.79 13.50Q18.54 12.74 18.54 11.81L18.54 11.81L18.54 11.81Q18.54 10.87 18.79 10.12L18.79 10.12L18.79 10.12Q19.03 9.36 19.50 8.82L19.50 8.82L19.50 8.82Q19.97 8.29 20.64 8.00L20.64 8.00L20.64 8.00Q21.32 7.70 22.18 7.70ZM22.18 15.30L22.18 15.30L22.18 15.30Q22.89 15.30 23.42 15.05L23.42 15.05L23.42 15.05Q23.95 14.81 24.31 14.35L24.31 14.35L24.31 14.35Q24.66 13.90 24.84 13.25L24.84 13.25L24.84 13.25Q25.02 12.61 25.02 11.81L25.02 11.81L25.02 11.81Q25.02 11.02 24.84 10.37L24.84 10.37L24.84 10.37Q24.66 9.72 24.31 9.26L24.31 9.26L24.31 9.26Q23.95 8.80 23.42 8.55L23.42 8.55L23.42 8.55Q22.89 8.30 22.18 8.30L22.18 8.30L22.18 8.30Q21.46 8.30 20.93 8.55L20.93 8.55L20.93 8.55Q20.40 8.80 20.04 9.26L20.04 9.26L20.04 9.26Q19.69 9.72 19.51 10.37L19.51 10.37L19.51 10.37Q19.33 11.02 19.33 11.81L19.33 11.81L19.33 11.81Q19.33 12.61 19.51 13.25L19.51 13.25L19.51 13.25Q19.69 13.90 20.04 14.35L20.04 14.35L20.04 14.35Q20.40 14.81 20.93 15.05L20.93 15.05L20.93 15.05Q21.46 15.30 22.18 15.30ZM29.86 15.79L29.10 15.79L29.10 8.66L27.98 8.59L27.98 8.59Q27.74 8.58 27.74 8.39L27.74 8.39L27.74 8.08L29.10 8.08L29.10 7.07L29.10 7.07Q29.10 6.39 29.27 5.88L29.27 5.88L29.27 5.88Q29.45 5.36 29.77 5.02L29.77 5.02L29.77 5.02Q30.09 4.67 30.54 4.50L30.54 4.50L30.54 4.50Q30.99 4.33 31.54 4.33L31.54 4.33L31.54 4.33Q31.78 4.33 32.04 4.37L32.04 4.37L32.04 4.37Q32.29 4.42 32.48 4.50L32.48 4.50L32.46 4.86L32.46 4.86Q32.45 4.98 32.30 4.98L32.30 4.98L32.30 4.98Q32.21 4.98 32.04 4.95L32.04 4.95L32.04 4.95Q31.88 4.93 31.64 4.93L31.64 4.93L31.64 4.93Q31.25 4.93 30.92 5.04L30.92 5.04L30.92 5.04Q30.58 5.16 30.34 5.42L30.34 5.42L30.34 5.42Q30.10 5.67 29.97 6.08L29.97 6.08L29.97 6.08Q29.84 6.50 29.84 7.10L29.84 7.10L29.84 8.08L32.42 8.08L32.42 8.65L29.86 8.65L29.86 15.79ZM37.95 7.70L37.95 7.70L37.95 7.70Q38.62 7.70 39.20 7.94L39.20 7.94L39.20 7.94Q39.77 8.17 40.19 8.61L40.19 8.61L40.19 8.61Q40.61 9.06 40.84 9.70L40.84 9.70L40.84 9.70Q41.08 10.35 41.08 11.19L41.08 11.19L41.08 11.19Q41.08 11.37 41.03 11.43L41.03 11.43L41.03 11.43Q40.98 11.50 40.86 11.50L40.86 11.50L35.11 11.50L35.11 11.65L35.11 11.65Q35.11 12.54 35.32 13.22L35.32 13.22L35.32 13.22Q35.53 13.90 35.91 14.36L35.91 14.36L35.91 14.36Q36.30 14.82 36.84 15.06L36.84 15.06L36.84 15.06Q37.38 15.29 38.06 15.29L38.06 15.29L38.06 15.29Q38.66 15.29 39.10 15.16L39.10 15.16L39.10 15.16Q39.54 15.02 39.84 14.86L39.84 14.86L39.84 14.86Q40.14 14.70 40.31 14.56L40.31 14.56L40.31 14.56Q40.49 14.43 40.57 14.43L40.57 14.43L40.57 14.43Q40.67 14.43 40.73 14.51L40.73 14.51L40.94 14.77L40.94 14.77Q40.74 15.01 40.43 15.22L40.43 15.22L40.43 15.22Q40.11 15.42 39.72 15.57L39.72 15.57L39.72 15.57Q39.34 15.72 38.89 15.81L38.89 15.81L38.89 15.81Q38.45 15.90 38 15.90L38 15.90L38 15.90Q37.18 15.90 36.51 15.61L36.51 15.61L36.51 15.61Q35.84 15.33 35.36 14.78L35.36 14.78L35.36 14.78Q34.88 14.24 34.62 13.45L34.62 13.45L34.62 13.45Q34.36 12.66 34.36 11.65L34.36 11.65L34.36 11.65Q34.36 10.79 34.60 10.07L34.60 10.07L34.60 10.07Q34.85 9.34 35.31 8.82L35.31 8.82L35.31 8.82Q35.77 8.30 36.44 8L36.44 8L36.44 8Q37.10 7.70 37.95 7.70ZM37.96 8.27L37.96 8.27L37.96 8.27Q37.34 8.27 36.86 8.46L36.86 8.46L36.86 8.46Q36.37 8.66 36.01 9.02L36.01 9.02L36.01 9.02Q35.66 9.38 35.44 9.88L35.44 9.88L35.44 9.88Q35.22 10.38 35.14 11.01L35.14 11.01L40.39 11.01L40.39 11.01Q40.39 10.37 40.22 9.86L40.22 9.86L40.22 9.86Q40.04 9.35 39.72 9L39.72 9L39.72 9Q39.40 8.65 38.95 8.46L38.95 8.46L38.95 8.46Q38.50 8.27 37.96 8.27ZM48.68 8.55L48.51 8.82L48.51 8.82Q48.46 8.93 48.34 8.93L48.34 8.93L48.34 8.93Q48.25 8.93 48.11 8.83L48.11 8.83L48.11 8.83Q47.97 8.73 47.74 8.60L47.74 8.60L47.74 8.60Q47.51 8.48 47.18 8.38L47.18 8.38L47.18 8.38Q46.85 8.28 46.37 8.28L46.37 8.28L46.37 8.28Q45.94 8.28 45.58 8.40L45.58 8.40L45.58 8.40Q45.22 8.53 44.97 8.74L44.97 8.74L44.97 8.74Q44.72 8.94 44.58 9.22L44.58 9.22L44.58 9.22Q44.44 9.50 44.44 9.80L44.44 9.80L44.44 9.80Q44.44 10.18 44.63 10.42L44.63 10.42L44.63 10.42Q44.82 10.67 45.14 10.85L45.14 10.85L45.14 10.85Q45.45 11.02 45.84 11.15L45.84 11.15L45.84 11.15Q46.24 11.28 46.66 11.41L46.66 11.41L46.66 11.41Q47.07 11.54 47.47 11.69L47.47 11.69L47.47 11.69Q47.86 11.85 48.18 12.08L48.18 12.08L48.18 12.08Q48.49 12.31 48.68 12.65L48.68 12.65L48.68 12.65Q48.87 12.98 48.87 13.46L48.87 13.46L48.87 13.46Q48.87 13.98 48.68 14.43L48.68 14.43L48.68 14.43Q48.50 14.88 48.14 15.21L48.14 15.21L48.14 15.21Q47.78 15.54 47.26 15.73L47.26 15.73L47.26 15.73Q46.74 15.92 46.08 15.92L46.08 15.92L46.08 15.92Q45.24 15.92 44.63 15.65L44.63 15.65L44.63 15.65Q44.02 15.38 43.54 14.95L43.54 14.95L43.73 14.68L43.73 14.68Q43.77 14.62 43.82 14.58L43.82 14.58L43.82 14.58Q43.86 14.55 43.95 14.55L43.95 14.55L43.95 14.55Q44.06 14.55 44.21 14.68L44.21 14.68L44.21 14.68Q44.36 14.81 44.60 14.96L44.60 14.96L44.60 14.96Q44.85 15.10 45.21 15.23L45.21 15.23L45.21 15.23Q45.58 15.36 46.11 15.36L46.11 15.36L46.11 15.36Q46.62 15.36 47 15.22L47 15.22L47 15.22Q47.38 15.08 47.64 14.84L47.64 14.84L47.64 14.84Q47.90 14.60 48.03 14.28L48.03 14.28L48.03 14.28Q48.16 13.95 48.16 13.59L48.16 13.59L48.16 13.59Q48.16 13.19 47.97 12.93L47.97 12.93L47.97 12.93Q47.78 12.66 47.46 12.48L47.46 12.48L47.46 12.48Q47.15 12.30 46.76 12.17L46.76 12.17L46.76 12.17Q46.36 12.04 45.94 11.91L45.94 11.91L45.94 11.91Q45.52 11.78 45.12 11.63L45.12 11.63L45.12 11.63Q44.73 11.48 44.42 11.25L44.42 11.25L44.42 11.25Q44.10 11.02 43.91 10.68L43.91 10.68L43.91 10.68Q43.72 10.35 43.72 9.86L43.72 9.86L43.72 9.86Q43.72 9.43 43.90 9.04L43.90 9.04L43.90 9.04Q44.09 8.65 44.43 8.35L44.43 8.35L44.43 8.35Q44.77 8.06 45.26 7.88L45.26 7.88L45.26 7.88Q45.74 7.70 46.35 7.70L46.35 7.70L46.35 7.70Q47.08 7.70 47.64 7.91L47.64 7.91L47.64 7.91Q48.21 8.12 48.68 8.55L48.68 8.55ZM56.56 8.55L56.39 8.82L56.39 8.82Q56.34 8.93 56.22 8.93L56.22 8.93L56.22 8.93Q56.13 8.93 55.99 8.83L55.99 8.83L55.99 8.83Q55.85 8.73 55.62 8.60L55.62 8.60L55.62 8.60Q55.39 8.48 55.06 8.38L55.06 8.38L55.06 8.38Q54.73 8.28 54.25 8.28L54.25 8.28L54.25 8.28Q53.82 8.28 53.46 8.40L53.46 8.40L53.46 8.40Q53.10 8.53 52.85 8.74L52.85 8.74L52.85 8.74Q52.60 8.94 52.46 9.22L52.46 9.22L52.46 9.22Q52.32 9.50 52.32 9.80L52.32 9.80L52.32 9.80Q52.32 10.18 52.51 10.42L52.51 10.42L52.51 10.42Q52.70 10.67 53.02 10.85L53.02 10.85L53.02 10.85Q53.33 11.02 53.72 11.15L53.72 11.15L53.72 11.15Q54.12 11.28 54.54 11.41L54.54 11.41L54.54 11.41Q54.95 11.54 55.35 11.69L55.35 11.69L55.35 11.69Q55.74 11.85 56.06 12.08L56.06 12.08L56.06 12.08Q56.37 12.31 56.56 12.65L56.56 12.65L56.56 12.65Q56.75 12.98 56.75 13.46L56.75 13.46L56.75 13.46Q56.75 13.98 56.56 14.43L56.56 14.43L56.56 14.43Q56.38 14.88 56.02 15.21L56.02 15.21L56.02 15.21Q55.66 15.54 55.14 15.73L55.14 15.73L55.14 15.73Q54.62 15.92 53.96 15.92L53.96 15.92L53.96 15.92Q53.12 15.92 52.51 15.65L52.51 15.65L52.51 15.65Q51.90 15.38 51.42 14.95L51.42 14.95L51.61 14.68L51.61 14.68Q51.65 14.62 51.70 14.58L51.70 14.58L51.70 14.58Q51.74 14.55 51.83 14.55L51.83 14.55L51.83 14.55Q51.94 14.55 52.09 14.68L52.09 14.68L52.09 14.68Q52.24 14.81 52.48 14.96L52.48 14.96L52.48 14.96Q52.73 15.10 53.09 15.23L53.09 15.23L53.09 15.23Q53.46 15.36 53.99 15.36L53.99 15.36L53.99 15.36Q54.50 15.36 54.88 15.22L54.88 15.22L54.88 15.22Q55.26 15.08 55.52 14.84L55.52 14.84L55.52 14.84Q55.78 14.60 55.91 14.28L55.91 14.28L55.91 14.28Q56.04 13.95 56.04 13.59L56.04 13.59L56.04 13.59Q56.04 13.19 55.85 12.93L55.85 12.93L55.85 12.93Q55.66 12.66 55.34 12.48L55.34 12.48L55.34 12.48Q55.03 12.30 54.64 12.17L54.64 12.17L54.64 12.17Q54.24 12.04 53.82 11.91L53.82 11.91L53.82 11.91Q53.40 11.78 53.00 11.63L53.00 11.63L53.00 11.63Q52.61 11.48 52.30 11.25L52.30 11.25L52.30 11.25Q51.98 11.02 51.79 10.68L51.79 10.68L51.79 10.68Q51.60 10.35 51.60 9.86L51.60 9.86L51.60 9.86Q51.60 9.43 51.78 9.04L51.78 9.04L51.78 9.04Q51.97 8.65 52.31 8.35L52.31 8.35L52.31 8.35Q52.65 8.06 53.14 7.88L53.14 7.88L53.14 7.88Q53.62 7.70 54.23 7.70L54.23 7.70L54.23 7.70Q54.96 7.70 55.52 7.91L55.52 7.91L55.52 7.91Q56.09 8.12 56.56 8.55L56.56 8.55ZM60.11 7.83L60.87 7.83L60.87 15.79L60.11 15.79L60.11 7.83ZM61.21 5.09L61.21 5.09L61.21 5.09Q61.21 5.23 61.15 5.36L61.15 5.36L61.15 5.36Q61.09 5.48 60.99 5.58L60.99 5.58L60.99 5.58Q60.90 5.67 60.77 5.73L60.77 5.73L60.77 5.73Q60.64 5.78 60.50 5.78L60.50 5.78L60.50 5.78Q60.35 5.78 60.22 5.73L60.22 5.73L60.22 5.73Q60.10 5.67 60.00 5.58L60.00 5.58L60.00 5.58Q59.90 5.48 59.85 5.36L59.85 5.36L59.85 5.36Q59.79 5.23 59.79 5.09L59.79 5.09L59.79 5.09Q59.79 4.94 59.85 4.81L59.85 4.81L59.85 4.81Q59.90 4.68 60.00 4.58L60.00 4.58L60.00 4.58Q60.10 4.49 60.22 4.43L60.22 4.43L60.22 4.43Q60.35 4.38 60.50 4.38L60.50 4.38L60.50 4.38Q60.64 4.38 60.77 4.43L60.77 4.43L60.77 4.43Q60.90 4.49 60.99 4.58L60.99 4.58L60.99 4.58Q61.09 4.68 61.15 4.81L61.15 4.81L61.15 4.81Q61.21 4.94 61.21 5.09ZM67.72 7.70L67.72 7.70L67.72 7.70Q68.58 7.70 69.25 8.00L69.25 8.00L69.25 8.00Q69.93 8.29 70.39 8.82L70.39 8.82L70.39 8.82Q70.86 9.36 71.10 10.12L71.10 10.12L71.10 10.12Q71.34 10.87 71.34 11.81L71.34 11.81L71.34 11.81Q71.34 12.74 71.10 13.50L71.10 13.50L71.10 13.50Q70.86 14.25 70.39 14.78L70.39 14.78L70.39 14.78Q69.93 15.32 69.25 15.61L69.25 15.61L69.25 15.61Q68.58 15.90 67.72 15.90L67.72 15.90L67.72 15.90Q66.86 15.90 66.19 15.61L66.19 15.61L66.19 15.61Q65.51 15.32 65.04 14.78L65.04 14.78L65.04 14.78Q64.58 14.25 64.33 13.50L64.33 13.50L64.33 13.50Q64.09 12.74 64.09 11.81L64.09 11.81L64.09 11.81Q64.09 10.87 64.33 10.12L64.33 10.12L64.33 10.12Q64.58 9.36 65.04 8.82L65.04 8.82L65.04 8.82Q65.51 8.29 66.19 8.00L66.19 8.00L66.19 8.00Q66.86 7.70 67.72 7.70ZM67.72 15.30L67.72 15.30L67.72 15.30Q68.43 15.30 68.96 15.05L68.96 15.05L68.96 15.05Q69.50 14.81 69.85 14.35L69.85 14.35L69.85 14.35Q70.21 13.90 70.38 13.25L70.38 13.25L70.38 13.25Q70.56 12.61 70.56 11.81L70.56 11.81L70.56 11.81Q70.56 11.02 70.38 10.37L70.38 10.37L70.38 10.37Q70.21 9.72 69.85 9.26L69.85 9.26L69.85 9.26Q69.50 8.80 68.96 8.55L68.96 8.55L68.96 8.55Q68.43 8.30 67.72 8.30L67.72 8.30L67.72 8.30Q67.01 8.30 66.48 8.55L66.48 8.55L66.48 8.55Q65.94 8.80 65.59 9.26L65.59 9.26L65.59 9.26Q65.23 9.72 65.05 10.37L65.05 10.37L65.05 10.37Q64.87 11.02 64.87 11.81L64.87 11.81L64.87 11.81Q64.87 12.61 65.05 13.25L65.05 13.25L65.05 13.25Q65.23 13.90 65.59 14.35L65.59 14.35L65.59 14.35Q65.94 14.81 66.48 15.05L66.48 15.05L66.48 15.05Q67.01 15.30 67.72 15.30ZM75.10 15.79L74.34 15.79L74.34 7.83L74.76 7.83L74.76 7.83Q74.97 7.83 75 8.03L75 8.03L75.07 9.23L75.07 9.23Q75.62 8.54 76.34 8.12L76.34 8.12L76.34 8.12Q77.06 7.70 77.95 7.70L77.95 7.70L77.95 7.70Q78.61 7.70 79.11 7.91L79.11 7.91L79.11 7.91Q79.61 8.12 79.94 8.51L79.94 8.51L79.94 8.51Q80.26 8.90 80.43 9.46L80.43 9.46L80.43 9.46Q80.60 10.01 80.60 10.70L80.60 10.70L80.60 15.79L79.84 15.79L79.84 10.70L79.84 10.70Q79.84 9.58 79.33 8.95L79.33 8.95L79.33 8.95Q78.82 8.31 77.76 8.31L77.76 8.31L77.76 8.31Q76.98 8.31 76.30 8.72L76.30 8.72L76.30 8.72Q75.63 9.12 75.10 9.82L75.10 9.82L75.10 15.79ZM89.38 15.79L89.08 15.79L89.08 15.79Q88.84 15.79 88.78 15.57L88.78 15.57L88.67 14.55L88.67 14.55Q88.34 14.87 88.02 15.13L88.02 15.13L88.02 15.13Q87.70 15.38 87.34 15.56L87.34 15.56L87.34 15.56Q86.99 15.74 86.58 15.83L86.58 15.83L86.58 15.83Q86.18 15.92 85.69 15.92L85.69 15.92L85.69 15.92Q85.28 15.92 84.90 15.80L84.90 15.80L84.90 15.80Q84.51 15.68 84.22 15.43L84.22 15.43L84.22 15.43Q83.92 15.18 83.74 14.80L83.74 14.80L83.74 14.80Q83.56 14.41 83.56 13.86L83.56 13.86L83.56 13.86Q83.56 13.36 83.85 12.93L83.85 12.93L83.85 12.93Q84.14 12.50 84.75 12.18L84.75 12.18L84.75 12.18Q85.36 11.86 86.32 11.66L86.32 11.66L86.32 11.66Q87.29 11.47 88.64 11.44L88.64 11.44L88.64 10.61L88.64 10.61Q88.64 9.50 88.16 8.91L88.16 8.91L88.16 8.91Q87.69 8.31 86.75 8.31L86.75 8.31L86.75 8.31Q86.18 8.31 85.77 8.47L85.77 8.47L85.77 8.47Q85.37 8.63 85.09 8.82L85.09 8.82L85.09 8.82Q84.81 9.02 84.63 9.18L84.63 9.18L84.63 9.18Q84.46 9.34 84.34 9.34L84.34 9.34L84.34 9.34Q84.18 9.34 84.10 9.19L84.10 9.19L83.96 8.96L83.96 8.96Q84.58 8.34 85.27 8.02L85.27 8.02L85.27 8.02Q85.96 7.70 86.83 7.70L86.83 7.70L86.83 7.70Q87.47 7.70 87.95 7.90L87.95 7.90L87.95 7.90Q88.43 8.10 88.75 8.48L88.75 8.48L88.75 8.48Q89.06 8.86 89.22 9.40L89.22 9.40L89.22 9.40Q89.38 9.94 89.38 10.61L89.38 10.61L89.38 15.79ZM85.88 15.37L85.88 15.37L85.88 15.37Q86.34 15.37 86.73 15.27L86.73 15.27L86.73 15.27Q87.12 15.17 87.45 14.99L87.45 14.99L87.45 14.99Q87.78 14.81 88.07 14.56L88.07 14.56L88.07 14.56Q88.36 14.31 88.64 14.02L88.64 14.02L88.64 11.95L88.64 11.95Q87.50 11.98 86.68 12.12L86.68 12.12L86.68 12.12Q85.86 12.26 85.33 12.50L85.33 12.50L85.33 12.50Q84.80 12.74 84.55 13.08L84.55 13.08L84.55 13.08Q84.30 13.41 84.30 13.83L84.30 13.83L84.30 13.83Q84.30 14.23 84.43 14.52L84.43 14.52L84.43 14.52Q84.56 14.82 84.78 15.00L84.78 15.00L84.78 15.00Q84.99 15.19 85.28 15.28L85.28 15.28L85.28 15.28Q85.57 15.37 85.88 15.37ZM93.01 4.15L93.77 4.15L93.77 15.79L93.01 15.79L93.01 4.15ZM105.94 4.47L110.58 15.79L109.94 15.79L109.94 15.79Q109.83 15.79 109.76 15.73L109.76 15.73L109.76 15.73Q109.69 15.67 109.65 15.58L109.65 15.58L108.31 12.29L102.75 12.29L101.42 15.58L101.42 15.58Q101.39 15.66 101.31 15.73L101.31 15.73L101.31 15.73Q101.23 15.79 101.12 15.79L101.12 15.79L100.50 15.79L105.13 4.47L105.94 4.47ZM105.31 5.97L103 11.68L108.07 11.68L105.76 5.96L105.76 5.96Q105.70 5.82 105.65 5.65L105.65 5.65L105.65 5.65Q105.59 5.48 105.54 5.29L105.54 5.29L105.54 5.29Q105.48 5.48 105.42 5.65L105.42 5.65L105.42 5.65Q105.37 5.82 105.31 5.97L105.31 5.97ZM112.78 7.83L113.55 7.83L113.55 12.92L113.55 12.92Q113.55 14.04 114.06 14.68L114.06 14.68L114.06 14.68Q114.58 15.31 115.62 15.31L115.62 15.31L115.62 15.31Q116.40 15.31 117.07 14.92L117.07 14.92L117.07 14.92Q117.74 14.52 118.28 13.82L118.28 13.82L118.28 7.83L119.05 7.83L119.05 15.79L118.62 15.79L118.62 15.79Q118.40 15.79 118.39 15.58L118.39 15.58L118.32 14.40L118.32 14.40Q117.77 15.09 117.04 15.50L117.04 15.50L117.04 15.50Q116.32 15.92 115.43 15.92L115.43 15.92L115.43 15.92Q114.77 15.92 114.27 15.71L114.27 15.71L114.27 15.71Q113.78 15.50 113.45 15.11L113.45 15.11L113.45 15.11Q113.12 14.72 112.95 14.17L112.95 14.17L112.95 14.17Q112.78 13.62 112.78 12.92L112.78 12.92L112.78 7.83ZM128.70 15.79L128.28 15.79L128.28 15.79Q128.08 15.79 128.05 15.58L128.05 15.58L127.97 14.33L127.97 14.33Q127.44 15.05 126.73 15.47L126.73 15.47L126.73 15.47Q126.02 15.90 125.14 15.90L125.14 15.90L125.14 15.90Q123.68 15.90 122.86 14.88L122.86 14.88L122.86 14.88Q122.04 13.86 122.04 11.83L122.04 11.83L122.04 11.83Q122.04 10.96 122.27 10.20L122.27 10.20L122.27 10.20Q122.50 9.45 122.94 8.89L122.94 8.89L122.94 8.89Q123.38 8.34 124.03 8.02L124.03 8.02L124.03 8.02Q124.67 7.70 125.51 7.70L125.51 7.70L125.51 7.70Q126.32 7.70 126.91 8.00L126.91 8.00L126.91 8.00Q127.50 8.30 127.94 8.87L127.94 8.87L127.94 4.15L128.70 4.15L128.70 15.79ZM125.36 15.28L125.36 15.28L125.36 15.28Q126.15 15.28 126.79 14.87L126.79 14.87L126.79 14.87Q127.43 14.46 127.94 13.74L127.94 13.74L127.94 9.54L127.94 9.54Q127.47 8.86 126.92 8.58L126.92 8.58L126.92 8.58Q126.36 8.30 125.66 8.30L125.66 8.30L125.66 8.30Q124.95 8.30 124.42 8.55L124.42 8.55L124.42 8.55Q123.90 8.81 123.54 9.28L123.54 9.28L123.54 9.28Q123.18 9.74 123.00 10.40L123.00 10.40L123.00 10.40Q122.82 11.05 122.82 11.83L122.82 11.83L122.82 11.83Q122.82 13.61 123.48 14.44L123.48 14.44L123.48 14.44Q124.14 15.28 125.36 15.28ZM132.60 7.83L133.36 7.83L133.36 15.79L132.60 15.79L132.60 7.83ZM133.70 5.09L133.70 5.09L133.70 5.09Q133.70 5.23 133.64 5.36L133.64 5.36L133.64 5.36Q133.58 5.48 133.48 5.58L133.48 5.58L133.48 5.58Q133.38 5.67 133.26 5.73L133.26 5.73L133.26 5.73Q133.13 5.78 132.98 5.78L132.98 5.78L132.98 5.78Q132.84 5.78 132.71 5.73L132.71 5.73L132.71 5.73Q132.58 5.67 132.49 5.58L132.49 5.58L132.49 5.58Q132.39 5.48 132.34 5.36L132.34 5.36L132.34 5.36Q132.28 5.23 132.28 5.09L132.28 5.09L132.28 5.09Q132.28 4.94 132.34 4.81L132.34 4.81L132.34 4.81Q132.39 4.68 132.49 4.58L132.49 4.58L132.49 4.58Q132.58 4.49 132.71 4.43L132.71 4.43L132.71 4.43Q132.84 4.38 132.98 4.38L132.98 4.38L132.98 4.38Q133.13 4.38 133.26 4.43L133.26 4.43L133.26 4.43Q133.38 4.49 133.48 4.58L133.48 4.58L133.48 4.58Q133.58 4.68 133.64 4.81L133.64 4.81L133.64 4.81Q133.70 4.94 133.70 5.09ZM140.21 7.70L140.21 7.70L140.21 7.70Q141.06 7.70 141.74 8.00L141.74 8.00L141.74 8.00Q142.42 8.29 142.88 8.82L142.88 8.82L142.88 8.82Q143.34 9.36 143.59 10.12L143.59 10.12L143.59 10.12Q143.83 10.87 143.83 11.81L143.83 11.81L143.83 11.81Q143.83 12.74 143.59 13.50L143.59 13.50L143.59 13.50Q143.34 14.25 142.88 14.78L142.88 14.78L142.88 14.78Q142.42 15.32 141.74 15.61L141.74 15.61L141.74 15.61Q141.06 15.90 140.21 15.90L140.21 15.90L140.21 15.90Q139.35 15.90 138.68 15.61L138.68 15.61L138.68 15.61Q138.00 15.32 137.53 14.78L137.53 14.78L137.53 14.78Q137.06 14.25 136.82 13.50L136.82 13.50L136.82 13.50Q136.58 12.74 136.58 11.81L136.58 11.81L136.58 11.81Q136.58 10.87 136.82 10.12L136.82 10.12L136.82 10.12Q137.06 9.36 137.53 8.82L137.53 8.82L137.53 8.82Q138.00 8.29 138.68 8.00L138.68 8.00L138.68 8.00Q139.35 7.70 140.21 7.70ZM140.21 15.30L140.21 15.30L140.21 15.30Q140.92 15.30 141.45 15.05L141.45 15.05L141.45 15.05Q141.98 14.81 142.34 14.35L142.34 14.35L142.34 14.35Q142.70 13.90 142.87 13.25L142.87 13.25L142.87 13.25Q143.05 12.61 143.05 11.81L143.05 11.81L143.05 11.81Q143.05 11.02 142.87 10.37L142.87 10.37L142.87 10.37Q142.70 9.72 142.34 9.26L142.34 9.26L142.34 9.26Q141.98 8.80 141.45 8.55L141.45 8.55L141.45 8.55Q140.92 8.30 140.21 8.30L140.21 8.30L140.21 8.30Q139.50 8.30 138.96 8.55L138.96 8.55L138.96 8.55Q138.43 8.80 138.08 9.26L138.08 9.26L138.08 9.26Q137.72 9.72 137.54 10.37L137.54 10.37L137.54 10.37Q137.36 11.02 137.36 11.81L137.36 11.81L137.36 11.81Q137.36 12.61 137.54 13.25L137.54 13.25L137.54 13.25Q137.72 13.90 138.08 14.35L138.08 14.35L138.08 14.35Q138.43 14.81 138.96 15.05L138.96 15.05L138.96 15.05Q139.50 15.30 140.21 15.30ZM156.97 5.48L156.78 5.85L156.78 5.85Q156.70 5.98 156.57 5.98L156.57 5.98L156.57 5.98Q156.46 5.98 156.30 5.84L156.30 5.84L156.30 5.84Q156.14 5.69 155.86 5.51L155.86 5.51L155.86 5.51Q155.58 5.33 155.16 5.18L155.16 5.18L155.16 5.18Q154.74 5.02 154.12 5.02L154.12 5.02L154.12 5.02Q153.50 5.02 153.04 5.20L153.04 5.20L153.04 5.20Q152.57 5.38 152.25 5.68L152.25 5.68L152.25 5.68Q151.94 5.98 151.77 6.38L151.77 6.38L151.77 6.38Q151.61 6.78 151.61 7.22L151.61 7.22L151.61 7.22Q151.61 7.80 151.85 8.18L151.85 8.18L151.85 8.18Q152.10 8.55 152.50 8.82L152.50 8.82L152.50 8.82Q152.90 9.08 153.40 9.26L153.40 9.26L153.40 9.26Q153.91 9.44 154.45 9.62L154.45 9.62L154.45 9.62Q154.98 9.79 155.49 10.00L155.49 10.00L155.49 10.00Q156.00 10.22 156.40 10.54L156.40 10.54L156.40 10.54Q156.80 10.86 157.04 11.32L157.04 11.32L157.04 11.32Q157.29 11.79 157.29 12.49L157.29 12.49L157.29 12.49Q157.29 13.20 157.04 13.83L157.04 13.83L157.04 13.83Q156.80 14.46 156.34 14.92L156.34 14.92L156.34 14.92Q155.87 15.38 155.20 15.65L155.20 15.65L155.20 15.65Q154.53 15.92 153.66 15.92L153.66 15.92L153.66 15.92Q152.54 15.92 151.74 15.52L151.74 15.52L151.74 15.52Q150.93 15.13 150.32 14.44L150.32 14.44L150.54 14.09L150.54 14.09Q150.64 13.97 150.77 13.97L150.77 13.97L150.77 13.97Q150.84 13.97 150.95 14.06L150.95 14.06L150.95 14.06Q151.06 14.16 151.22 14.30L151.22 14.30L151.22 14.30Q151.38 14.44 151.61 14.60L151.61 14.60L151.61 14.60Q151.83 14.77 152.13 14.91L152.13 14.91L152.13 14.91Q152.42 15.05 152.81 15.14L152.81 15.14L152.81 15.14Q153.19 15.24 153.68 15.24L153.68 15.24L153.68 15.24Q154.35 15.24 154.88 15.04L154.88 15.04L154.88 15.04Q155.41 14.83 155.77 14.48L155.77 14.48L155.77 14.48Q156.14 14.13 156.33 13.64L156.33 13.64L156.33 13.64Q156.52 13.16 156.52 12.61L156.52 12.61L156.52 12.61Q156.52 12.01 156.28 11.62L156.28 11.62L156.28 11.62Q156.03 11.23 155.63 10.97L155.63 10.97L155.63 10.97Q155.23 10.71 154.72 10.54L154.72 10.54L154.72 10.54Q154.22 10.36 153.68 10.19L153.68 10.19L153.68 10.19Q153.14 10.02 152.64 9.82L152.64 9.82L152.64 9.82Q152.13 9.61 151.73 9.28L151.73 9.28L151.73 9.28Q151.33 8.96 151.08 8.48L151.08 8.48L151.08 8.48Q150.84 7.99 150.84 7.26L150.84 7.26L150.84 7.26Q150.84 6.70 151.06 6.17L151.06 6.17L151.06 6.17Q151.27 5.64 151.69 5.24L151.69 5.24L151.69 5.24Q152.10 4.83 152.72 4.59L152.72 4.59L152.72 4.59Q153.33 4.34 154.11 4.34L154.11 4.34L154.11 4.34Q154.99 4.34 155.69 4.62L155.69 4.62L155.69 4.62Q156.39 4.90 156.97 5.48L156.97 5.48ZM163.28 7.70L163.28 7.70L163.28 7.70Q163.95 7.70 164.52 7.94L164.52 7.94L164.52 7.94Q165.10 8.17 165.52 8.61L165.52 8.61L165.52 8.61Q165.94 9.06 166.17 9.70L166.17 9.70L166.17 9.70Q166.41 10.35 166.41 11.19L166.41 11.19L166.41 11.19Q166.41 11.37 166.36 11.43L166.36 11.43L166.36 11.43Q166.30 11.50 166.19 11.50L166.19 11.50L160.44 11.50L160.44 11.65L160.44 11.65Q160.44 12.54 160.65 13.22L160.65 13.22L160.65 13.22Q160.86 13.90 161.24 14.36L161.24 14.36L161.24 14.36Q161.62 14.82 162.17 15.06L162.17 15.06L162.17 15.06Q162.71 15.29 163.38 15.29L163.38 15.29L163.38 15.29Q163.98 15.29 164.42 15.16L164.42 15.16L164.42 15.16Q164.86 15.02 165.16 14.86L165.16 14.86L165.16 14.86Q165.46 14.70 165.64 14.56L165.64 14.56L165.64 14.56Q165.82 14.43 165.90 14.43L165.90 14.43L165.90 14.43Q166.00 14.43 166.06 14.51L166.06 14.51L166.26 14.77L166.26 14.77Q166.07 15.01 165.76 15.22L165.76 15.22L165.76 15.22Q165.44 15.42 165.05 15.57L165.05 15.57L165.05 15.57Q164.66 15.72 164.22 15.81L164.22 15.81L164.22 15.81Q163.78 15.90 163.33 15.90L163.33 15.90L163.33 15.90Q162.51 15.90 161.84 15.61L161.84 15.61L161.84 15.61Q161.17 15.33 160.69 14.78L160.69 14.78L160.69 14.78Q160.21 14.24 159.95 13.45L159.95 13.45L159.95 13.45Q159.69 12.66 159.69 11.65L159.69 11.65L159.69 11.65Q159.69 10.79 159.93 10.07L159.93 10.07L159.93 10.07Q160.18 9.34 160.64 8.82L160.64 8.82L160.64 8.82Q161.10 8.30 161.76 8L161.76 8L161.76 8Q162.43 7.70 163.28 7.70ZM163.29 8.27L163.29 8.27L163.29 8.27Q162.67 8.27 162.18 8.46L162.18 8.46L162.18 8.46Q161.70 8.66 161.34 9.02L161.34 9.02L161.34 9.02Q160.98 9.38 160.76 9.88L160.76 9.88L160.76 9.88Q160.54 10.38 160.47 11.01L160.47 11.01L165.72 11.01L165.72 11.01Q165.72 10.37 165.54 9.86L165.54 9.86L165.54 9.86Q165.37 9.35 165.05 9L165.05 9L165.05 9Q164.73 8.65 164.28 8.46L164.28 8.46L164.28 8.46Q163.83 8.27 163.29 8.27ZM170.22 15.79L169.46 15.79L169.46 7.83L169.86 7.83L169.86 7.83Q169.99 7.83 170.05 7.89L170.05 7.89L170.05 7.89Q170.11 7.94 170.12 8.08L170.12 8.08L170.18 9.76L170.18 9.76Q170.57 8.79 171.21 8.24L171.21 8.24L171.21 8.24Q171.85 7.70 172.78 7.70L172.78 7.70L172.78 7.70Q173.14 7.70 173.45 7.77L173.45 7.77L173.45 7.77Q173.75 7.85 174.02 7.99L174.02 7.99L173.92 8.52L173.92 8.52Q173.90 8.65 173.76 8.65L173.76 8.65L173.76 8.65Q173.71 8.65 173.62 8.62L173.62 8.62L173.62 8.62Q173.54 8.58 173.40 8.54L173.40 8.54L173.40 8.54Q173.27 8.50 173.08 8.47L173.08 8.47L173.08 8.47Q172.89 8.44 172.64 8.44L172.64 8.44L172.64 8.44Q171.74 8.44 171.16 9L171.16 9L171.16 9Q170.58 9.56 170.22 10.62L170.22 10.62L170.22 15.79ZM183.10 7.83L179.74 15.79L179.07 15.79L175.71 7.83L176.31 7.83L176.31 7.83Q176.42 7.83 176.49 7.89L176.49 7.89L176.49 7.89Q176.56 7.95 176.59 8.02L176.59 8.02L179.22 14.30L179.22 14.30Q179.30 14.49 179.34 14.66L179.34 14.66L179.34 14.66Q179.38 14.82 179.42 14.99L179.42 14.99L179.42 14.99Q179.46 14.82 179.50 14.65L179.50 14.65L179.50 14.65Q179.54 14.48 179.62 14.30L179.62 14.30L182.26 8.02L182.26 8.02Q182.30 7.94 182.36 7.88L182.36 7.88L182.36 7.88Q182.43 7.83 182.53 7.83L182.53 7.83L183.10 7.83ZM185.82 7.83L186.58 7.83L186.58 15.79L185.82 15.79L185.82 7.83ZM186.92 5.09L186.92 5.09L186.92 5.09Q186.92 5.23 186.86 5.36L186.86 5.36L186.86 5.36Q186.80 5.48 186.70 5.58L186.70 5.58L186.70 5.58Q186.61 5.67 186.48 5.73L186.48 5.73L186.48 5.73Q186.35 5.78 186.21 5.78L186.21 5.78L186.21 5.78Q186.06 5.78 185.94 5.73L185.94 5.73L185.94 5.73Q185.81 5.67 185.71 5.58L185.71 5.58L185.71 5.58Q185.62 5.48 185.56 5.36L185.56 5.36L185.56 5.36Q185.50 5.23 185.50 5.09L185.50 5.09L185.50 5.09Q185.50 4.94 185.56 4.81L185.56 4.81L185.56 4.81Q185.62 4.68 185.71 4.58L185.71 4.58L185.71 4.58Q185.81 4.49 185.94 4.43L185.94 4.43L185.94 4.43Q186.06 4.38 186.21 4.38L186.21 4.38L186.21 4.38Q186.35 4.38 186.48 4.43L186.48 4.43L186.48 4.43Q186.61 4.49 186.70 4.58L186.70 4.58L186.70 4.58Q186.80 4.68 186.86 4.81L186.86 4.81L186.86 4.81Q186.92 4.94 186.92 5.09ZM195.84 8.62L195.64 8.90L195.64 8.90Q195.60 8.94 195.56 8.96L195.56 8.96L195.56 8.96Q195.53 8.99 195.46 8.99L195.46 8.99L195.46 8.99Q195.38 8.99 195.24 8.88L195.24 8.88L195.24 8.88Q195.10 8.78 194.87 8.65L194.87 8.65L194.87 8.65Q194.64 8.52 194.29 8.41L194.29 8.41L194.29 8.41Q193.94 8.30 193.45 8.30L193.45 8.30L193.45 8.30Q192.76 8.30 192.23 8.55L192.23 8.55L192.23 8.55Q191.70 8.79 191.33 9.25L191.33 9.25L191.33 9.25Q190.97 9.70 190.78 10.35L190.78 10.35L190.78 10.35Q190.58 11 190.58 11.81L190.58 11.81L190.58 11.81Q190.58 12.65 190.78 13.30L190.78 13.30L190.78 13.30Q190.98 13.94 191.34 14.39L191.34 14.39L191.34 14.39Q191.70 14.83 192.21 15.06L192.21 15.06L192.21 15.06Q192.72 15.30 193.34 15.30L193.34 15.30L193.34 15.30Q193.92 15.30 194.31 15.16L194.31 15.16L194.31 15.16Q194.70 15.02 194.95 14.86L194.95 14.86L194.95 14.86Q195.20 14.70 195.35 14.57L195.35 14.57L195.35 14.57Q195.50 14.43 195.58 14.43L195.58 14.43L195.58 14.43Q195.69 14.43 195.74 14.51L195.74 14.51L195.95 14.77L195.95 14.77Q195.77 15.01 195.49 15.22L195.49 15.22L195.49 15.22Q195.21 15.42 194.86 15.58L194.86 15.58L194.86 15.58Q194.50 15.73 194.09 15.81L194.09 15.81L194.09 15.81Q193.68 15.90 193.23 15.90L193.23 15.90L193.23 15.90Q192.47 15.90 191.84 15.62L191.84 15.62L191.84 15.62Q191.22 15.34 190.76 14.82L190.76 14.82L190.76 14.82Q190.31 14.30 190.06 13.54L190.06 13.54L190.06 13.54Q189.81 12.78 189.81 11.81L189.81 11.81L189.81 11.81Q189.81 10.90 190.05 10.14L190.05 10.14L190.05 10.14Q190.29 9.39 190.75 8.85L190.75 8.85L190.75 8.85Q191.21 8.30 191.88 8.00L191.88 8.00L191.88 8.00Q192.54 7.70 193.41 7.70L193.41 7.70L193.41 7.70Q194.18 7.70 194.79 7.95L194.79 7.95L194.79 7.95Q195.39 8.20 195.84 8.62L195.84 8.62ZM201.68 7.70L201.68 7.70L201.68 7.70Q202.35 7.70 202.92 7.94L202.92 7.94L202.92 7.94Q203.50 8.17 203.92 8.61L203.92 8.61L203.92 8.61Q204.34 9.06 204.57 9.70L204.57 9.70L204.57 9.70Q204.81 10.35 204.81 11.19L204.81 11.19L204.81 11.19Q204.81 11.37 204.76 11.43L204.76 11.43L204.76 11.43Q204.70 11.50 204.59 11.50L204.59 11.50L198.84 11.50L198.84 11.65L198.84 11.65Q198.84 12.54 199.05 13.22L199.05 13.22L199.05 13.22Q199.26 13.90 199.64 14.36L199.64 14.36L199.64 14.36Q200.02 14.82 200.57 15.06L200.57 15.06L200.57 15.06Q201.11 15.29 201.78 15.29L201.78 15.29L201.78 15.29Q202.38 15.29 202.82 15.16L202.82 15.16L202.82 15.16Q203.26 15.02 203.56 14.86L203.56 14.86L203.56 14.86Q203.86 14.70 204.04 14.56L204.04 14.56L204.04 14.56Q204.22 14.43 204.30 14.43L204.30 14.43L204.30 14.43Q204.40 14.43 204.46 14.51L204.46 14.51L204.66 14.77L204.66 14.77Q204.47 15.01 204.16 15.22L204.16 15.22L204.16 15.22Q203.84 15.42 203.45 15.57L203.45 15.57L203.45 15.57Q203.06 15.72 202.62 15.81L202.62 15.81L202.62 15.81Q202.18 15.90 201.73 15.90L201.73 15.90L201.73 15.90Q200.91 15.90 200.24 15.61L200.24 15.61L200.24 15.61Q199.57 15.33 199.09 14.78L199.09 14.78L199.09 14.78Q198.61 14.24 198.35 13.45L198.35 13.45L198.35 13.45Q198.09 12.66 198.09 11.65L198.09 11.65L198.09 11.65Q198.09 10.79 198.33 10.07L198.33 10.07L198.33 10.07Q198.58 9.34 199.04 8.82L199.04 8.82L199.04 8.82Q199.50 8.30 200.16 8L200.16 8L200.16 8Q200.83 7.70 201.68 7.70ZM201.69 8.27L201.69 8.27L201.69 8.27Q201.07 8.27 200.58 8.46L200.58 8.46L200.58 8.46Q200.10 8.66 199.74 9.02L199.74 9.02L199.74 9.02Q199.38 9.38 199.16 9.88L199.16 9.88L199.16 9.88Q198.94 10.38 198.87 11.01L198.87 11.01L204.12 11.01L204.12 11.01Q204.12 10.37 203.94 9.86L203.94 9.86L203.94 9.86Q203.77 9.35 203.45 9L203.45 9L203.45 9Q203.13 8.65 202.68 8.46L202.68 8.46L202.68 8.46Q202.23 8.27 201.69 8.27ZM212.41 8.55L212.24 8.82L212.24 8.82Q212.18 8.93 212.06 8.93L212.06 8.93L212.06 8.93Q211.98 8.93 211.84 8.83L211.84 8.83L211.84 8.83Q211.70 8.73 211.47 8.60L211.47 8.60L211.47 8.60Q211.24 8.48 210.91 8.38L210.91 8.38L210.91 8.38Q210.58 8.28 210.10 8.28L210.10 8.28L210.10 8.28Q209.66 8.28 209.31 8.40L209.31 8.40L209.31 8.40Q208.95 8.53 208.70 8.74L208.70 8.74L208.70 8.74Q208.45 8.94 208.31 9.22L208.31 9.22L208.31 9.22Q208.17 9.50 208.17 9.80L208.17 9.80L208.17 9.80Q208.17 10.18 208.36 10.42L208.36 10.42L208.36 10.42Q208.55 10.67 208.86 10.85L208.86 10.85L208.86 10.85Q209.18 11.02 209.57 11.15L209.57 11.15L209.57 11.15Q209.97 11.28 210.38 11.41L210.38 11.41L210.38 11.41Q210.80 11.54 211.20 11.69L211.20 11.69L211.20 11.69Q211.59 11.85 211.90 12.08L211.90 12.08L211.90 12.08Q212.22 12.31 212.41 12.65L212.41 12.65L212.41 12.65Q212.60 12.98 212.60 13.46L212.60 13.46L212.60 13.46Q212.60 13.98 212.41 14.43L212.41 14.43L212.41 14.43Q212.22 14.88 211.87 15.21L211.87 15.21L211.87 15.21Q211.51 15.54 210.99 15.73L210.99 15.73L210.99 15.73Q210.47 15.92 209.81 15.92L209.81 15.92L209.81 15.92Q208.97 15.92 208.36 15.65L208.36 15.65L208.36 15.65Q207.75 15.38 207.27 14.95L207.27 14.95L207.46 14.68L207.46 14.68Q207.50 14.62 207.54 14.58L207.54 14.58L207.54 14.58Q207.59 14.55 207.68 14.55L207.68 14.55L207.68 14.55Q207.78 14.55 207.94 14.68L207.94 14.68L207.94 14.68Q208.09 14.81 208.33 14.96L208.33 14.96L208.33 14.96Q208.58 15.10 208.94 15.23L208.94 15.23L208.94 15.23Q209.30 15.36 209.84 15.36L209.84 15.36L209.84 15.36Q210.34 15.36 210.73 15.22L210.73 15.22L210.73 15.22Q211.11 15.08 211.37 14.84L211.37 14.84L211.37 14.84Q211.62 14.60 211.76 14.28L211.76 14.28L211.76 14.28Q211.89 13.95 211.89 13.59L211.89 13.59L211.89 13.59Q211.89 13.19 211.70 12.93L211.70 12.93L211.70 12.93Q211.50 12.66 211.19 12.48L211.19 12.48L211.19 12.48Q210.88 12.30 210.48 12.17L210.48 12.17L210.48 12.17Q210.09 12.04 209.67 11.91L209.67 11.91L209.67 11.91Q209.25 11.78 208.85 11.63L208.85 11.63L208.85 11.63Q208.46 11.48 208.14 11.25L208.14 11.25L208.14 11.25Q207.83 11.02 207.64 10.68L207.64 10.68L207.64 10.68Q207.45 10.35 207.45 9.86L207.45 9.86L207.45 9.86Q207.45 9.43 207.63 9.04L207.63 9.04L207.63 9.04Q207.82 8.65 208.16 8.35L208.16 8.35L208.16 8.35Q208.50 8.06 208.98 7.88L208.98 7.88L208.98 7.88Q209.47 7.70 210.08 7.70L210.08 7.70L210.08 7.70Q210.81 7.70 211.37 7.91L211.37 7.91L211.37 7.91Q211.94 8.12 212.41 8.55L212.41 8.55Z" transform="rotate(0 107.2600040435791 10.035000324249268)"></path><defs id="SvgjsDefs1020"></defs></svg></g></svg>